<?xml version="1.0" encoding="utf-8"?>
<!-- Generator: Adobe Illustrator 27.5.0, SVG Export Plug-In . SVG Version: 6.00 Build 0)  -->
<svg version="1.1" xmlns="http://www.w3.org/2000/svg" xmlns:xlink="http://www.w3.org/1999/xlink" x="0px" y="0px"
	 viewBox="0 0 500 500" style="enable-background:new 0 0 500 500;" xml:space="preserve">
<g id="Clouds">
	<g>
		
			<path style="fill:#FFFFFF;stroke:#9ABAE3;stroke-width:2.5;stroke-linecap:round;stroke-linejoin:round;stroke-miterlimit:10;" d="
			M37.751,60.471h110.634c0,0-2.878-6.082-12.535-6.74c0,0-3.041-10.521-12.596-12.987c-9.555-2.466-15.637,3.781-15.637,3.781
			s-4.932-15.453-17.919-15.124S74.245,41.073,74.245,41.073s-7.562-1.151-9.535,5.425c0,0-7.891-3.123-12.822,0.822
			c-4.932,3.945-5.096,7.233-5.096,7.233S40.71,54.224,37.751,60.471z"/>
		
			<path style="fill:#FFFFFF;stroke:#9ABAE3;stroke-width:2.5;stroke-linecap:round;stroke-linejoin:round;stroke-miterlimit:10;" d="
			M320.243,171.426h151.675c0,0-3.945-8.339-17.185-9.24c0,0-4.169-14.424-17.269-17.804c-13.099-3.38-21.438,5.184-21.438,5.184
			s-6.761-21.185-24.566-20.734c-17.804,0.451-21.185,16.001-21.185,16.001s-10.367-1.578-13.072,7.437
			c0,0-10.818-4.282-17.579,1.127c-6.761,5.409-6.986,9.916-6.986,9.916S324.299,162.862,320.243,171.426z"/>
		
			<path style="fill:#FFFFFF;stroke:#9ABAE3;stroke-width:2.5;stroke-linecap:round;stroke-linejoin:round;stroke-miterlimit:10;" d="
			M21.103,428.36h151.675c0,0-3.945-8.339-17.185-9.24c0,0-4.169-14.424-17.269-17.804c-13.099-3.38-21.438,5.184-21.438,5.184
			s-6.761-21.185-24.565-20.734c-17.804,0.451-21.185,16.001-21.185,16.001s-10.367-1.578-13.072,7.437
			c0,0-10.818-4.282-17.579,1.127c-6.761,5.409-6.986,9.916-6.986,9.916S25.159,419.796,21.103,428.36z"/>
		
			<path style="fill:#FFFFFF;stroke:#9ABAE3;stroke-width:2.5;stroke-linecap:round;stroke-linejoin:round;stroke-miterlimit:10;" d="
			M326.685,474.108H478.36c0,0-3.945-8.339-17.185-9.24c0,0-4.169-14.424-17.269-17.804c-13.1-3.38-21.438,5.184-21.438,5.184
			s-6.761-21.185-24.565-20.734c-17.804,0.451-21.185,16.001-21.185,16.001s-10.367-1.578-13.072,7.437
			c0,0-10.818-4.282-17.579,1.127c-6.761,5.409-6.987,9.916-6.987,9.916S330.741,465.544,326.685,474.108z"/>
		
			<path style="fill:#FFFFFF;stroke:#9ABAE3;stroke-width:2.5;stroke-linecap:round;stroke-linejoin:round;stroke-miterlimit:10;" d="
			M478.897,82.675c-3.378-6.146-14.284-20.421-37.309-13.433c-2.671-5.922-16.266-21.306-34.602-9.923
			c-4.689-7.375-10.646-14.133-28.489-9.545c-3.982-10.558-14.006-18.065-25.774-18.065c-14.307,0-26.073,11.075-27.488,25.267
			c-0.048,0-0.094-0.005-0.142-0.005c-1.438,0-2.839,0.106-4.206,0.282c-3.253-6.779-9.4-11.361-16.462-11.361
			c-10.202,0-18.496,9.552-18.89,21.501c-1.075-0.14-2.173-0.228-3.301-0.228c-10.694,0-19.363,6.548-19.363,14.625
			c0,0.299,0.036,0.592,0.059,0.886H478.897z"/>
	</g>
</g>
<g id="Character_8">
	<g>
		<g>
			<path style="fill:#9ABAE3;" d="M193.483,125.638c-24.24,13.027-54.06,47.96-67.35,72.596c-0.073-1.9-36.387-58.362-36.387-58.362
				c5.701-8.408,6.814-6.814,24.503-24.503c17.688-17.689,16.095-18.802,24.502-24.503
				C138.751,90.867,189.883,125.358,193.483,125.638z"/>
			<path style="fill:#FFFFFF;" d="M142.541,93.23c-7.087,5.061-9.801,9.028-26.269,25.496
				c-15.882,15.882-20.235,18.222-24.149,25.096c-1.473-2.46-2.374-3.947-2.374-3.947c5.701-8.408,6.814-6.814,24.503-24.503
				s16.095-18.802,24.502-24.503C138.754,90.869,140.181,91.763,142.541,93.23z"/>
			<path style="fill:none;stroke:#263238;stroke-width:2.5;stroke-linecap:round;stroke-linejoin:round;stroke-miterlimit:10;" d="
				M196.636,129.761c-24.24,13.027-57.213,43.837-70.503,68.473c-0.073-1.9-36.387-58.362-36.387-58.362
				c5.701-8.408,6.814-6.814,24.503-24.503c17.688-17.689,16.095-18.802,24.502-24.503
				C138.751,90.867,193.035,129.481,196.636,129.761z"/>
			
				<polyline style="fill:none;stroke:#263238;stroke-width:2.5;stroke-linecap:round;stroke-linejoin:round;stroke-miterlimit:10;" points="
				104.786,124.363 142.541,125.526 168.994,142.839 			"/>
		</g>
		<g>
			<path style="fill:#FCD8C3;" d="M102.925,122.498c-6.368-5.73-7.618-14.723-2.791-20.087c4.826-5.364,13.901-5.067,20.269,0.662
				c6.368,5.73,7.618,14.723,2.792,20.087C118.368,128.524,109.293,128.227,102.925,122.498z"/>
			<path style="fill:#FFFFFF;" d="M123.194,123.161c-1.348,1.496-3.03,2.555-4.892,3.169c0.805-0.509,1.54-1.126,2.2-1.854
				c4.572-5.087,3.388-13.611-2.649-19.046c-6.041-5.433-14.642-5.711-19.216-0.629c-0.114,0.129-0.232,0.261-0.337,0.397
				c0.46-1.002,1.071-1.942,1.834-2.788c4.825-5.361,13.901-5.065,20.269,0.664C126.772,108.803,128.021,117.794,123.194,123.161z"
				/>
			<path style="fill:none;stroke:#263238;stroke-width:2.5;stroke-linecap:round;stroke-linejoin:round;stroke-miterlimit:10;" d="
				M102.925,122.498c-6.368-5.73-7.618-14.723-2.791-20.087c4.826-5.364,13.901-5.067,20.269,0.662
				c6.368,5.73,7.618,14.723,2.792,20.087C118.368,128.524,109.293,128.227,102.925,122.498z"/>
			<path style="fill:#263238;" d="M116.735,126.433c0,0,7.735,3.327,11.045-0.582c2.431-2.871-1.743-7.263-1.743-7.263
				S123.243,124.704,116.735,126.433z"/>
			<path style="fill:#263238;" d="M102.925,122.498c6.162-5.533,6.422-14.486,4-18.781c0,0,7.823-4.107,2.993-9.756
				c-4.078-4.77-10.753,1.995-8.647,6.762c0,0-5.541,4.994-4.379,11.917C98.168,120.235,102.925,122.498,102.925,122.498z"/>
			<path style="fill:#263238;" d="M96.172,104.826c3.337,3.337,3.337,8.747,0,12.084c-3.337,3.337-8.747,3.337-12.083,0
				s-3.337-8.747,0-12.084C87.425,101.489,92.835,101.489,96.172,104.826z"/>
		</g>
		<g>
			<g>
				<g>
					<path style="fill:#FCD8C3;" d="M262.79,47.193c0,0-0.67-1.57-12.94-2.26"/>
					<path style="fill:#FCD8C3;" d="M259.692,39.524c0,0-1.972-0.179-11.078-0.51"/>
				</g>
				<path style="fill:#FCD8C3;" d="M159.504,110.415c12.253,5.865,10.458-1.002,10.458-1.002s34.363-28.874,36.718-29.767
					c2.35-0.904,30.311-13.705,30.311-13.705s17.654,4.785,18.588-0.739c0.746-4.416-10.538-7.878-10.538-7.878
					s12.643-2.383,15.89-3.713c5.056-2.087,1.857-6.415,1.857-6.415s2.497-2.25,0.742-4.963c-1.011-1.563-4.512-3.021-4.512-3.021
					s0.467-8.807-16.984-6.419c-22.462,3.073-41.01,10.968-55.29,18.218c-6.922,3.514-45.544,33.157-49.742,41.942
					C137.002,92.953,145.046,103.494,159.504,110.415z"/>
				<path style="fill:none;stroke:#263238;stroke-width:2.5;stroke-linecap:round;stroke-linejoin:round;stroke-miterlimit:10;" d="
					M159.504,110.415c12.253,5.865,10.458-1.002,10.458-1.002s34.363-28.874,36.718-29.767c2.35-0.904,30.311-13.705,30.311-13.705
					s17.654,4.785,18.588-0.739c0.746-4.416-10.538-7.878-10.538-7.878s12.643-2.383,15.89-3.713
					c5.056-2.087,1.857-6.415,1.857-6.415s2.497-2.25,0.742-4.963c-1.011-1.563-4.512-3.021-4.512-3.021s0.467-8.807-16.984-6.419
					c-22.462,3.073-41.01,10.968-55.29,18.218c-6.922,3.514-45.544,33.157-49.742,41.942
					C137.002,92.953,145.046,103.494,159.504,110.415z"/>
				<path style="fill:none;stroke:#263238;stroke-width:2.5;stroke-linecap:round;stroke-linejoin:round;stroke-miterlimit:10;" d="
					M262.79,47.193c0,0-1.548-2.975-14.058-1.484"/>
				<path style="fill:none;stroke:#263238;stroke-width:2.5;stroke-linecap:round;stroke-linejoin:round;stroke-miterlimit:10;" d="
					M259.692,39.524c0,0-4.682-2.516-13.69-0.852"/>
				<g>
					
						<path style="fill:none;stroke:#263238;stroke-width:2.5;stroke-linecap:round;stroke-linejoin:round;stroke-miterlimit:10;" d="
						M246.299,66.286c0,0,0.545-2.688,2.996-3.264c2.451-0.576,5.682,1.619,5.682,1.619"/>
				</g>
			</g>
		</g>
		<g>
			<g>
				<g>
					<path style="fill:#FCD8C3;" d="M46.072,263.911c0,0-1.57-0.67-2.26-12.94"/>
					<path style="fill:#FCD8C3;" d="M38.403,260.813c0,0-0.179-1.972-0.51-11.078"/>
				</g>
				<path style="fill:#FCD8C3;" d="M109.293,160.626c5.865,12.253-1.002,10.458-1.002,10.458s-28.875,34.363-29.767,36.718
					c-0.904,2.35-13.705,30.311-13.705,30.311s4.785,17.654-0.739,18.588c-4.416,0.746-7.878-10.538-7.878-10.538
					s-2.383,12.643-3.713,15.89c-2.087,5.056-6.415,1.857-6.415,1.857s-2.25,2.497-4.963,0.742
					c-1.563-1.011-3.021-4.512-3.021-4.512s-8.807,0.467-6.419-16.984c3.073-22.462,10.968-41.009,18.218-55.29
					c3.514-6.922,33.157-45.544,41.942-49.742C91.832,138.124,102.373,146.167,109.293,160.626z"/>
				<path style="fill:none;stroke:#263238;stroke-width:2.5;stroke-linecap:round;stroke-linejoin:round;stroke-miterlimit:10;" d="
					M109.293,160.626c5.865,12.253-1.002,10.458-1.002,10.458s-28.875,34.363-29.767,36.718
					c-0.904,2.35-13.705,30.311-13.705,30.311s4.785,17.654-0.739,18.588c-4.416,0.746-7.878-10.538-7.878-10.538
					s-2.383,12.643-3.713,15.89c-2.087,5.056-6.415,1.857-6.415,1.857s-2.25,2.497-4.963,0.742
					c-1.563-1.011-3.021-4.512-3.021-4.512s-8.807,0.467-6.419-16.984c3.073-22.462,10.968-41.009,18.218-55.29
					c3.514-6.922,33.157-45.544,41.942-49.742C91.832,138.124,102.373,146.167,109.293,160.626z"/>
				<path style="fill:none;stroke:#263238;stroke-width:2.5;stroke-linecap:round;stroke-linejoin:round;stroke-miterlimit:10;" d="
					M46.072,263.911c0,0-2.975-1.548-1.484-14.058"/>
				<path style="fill:none;stroke:#263238;stroke-width:2.5;stroke-linecap:round;stroke-linejoin:round;stroke-miterlimit:10;" d="
					M38.403,260.813c0,0-2.516-4.682-0.852-13.69"/>
				<g>
					
						<path style="fill:none;stroke:#263238;stroke-width:2.5;stroke-linecap:round;stroke-linejoin:round;stroke-miterlimit:10;" d="
						M65.165,247.42c0,0-2.688,0.545-3.264,2.996c-0.576,2.452,1.619,5.683,1.619,5.683"/>
				</g>
			</g>
		</g>
	</g>
</g>
<g id="Character_7">
	<g>
		<g>
			<g>
				<g>
					<g>
						<path style="fill:#FCD8C3;" d="M453.928,264.133c0,0,1.57-0.67,2.26-12.94"/>
						<path style="fill:#FCD8C3;" d="M461.597,261.035c0,0,0.179-1.972,0.51-11.078"/>
					</g>
					<g>
						<path style="fill:#B5846B;" d="M392.26,160.791c-3.498,13.037,0.102,14.156,0.102,14.156s25.353,28.791,26.245,31.145
							c0.904,2.35,16.573,32.242,16.573,32.242s-4.785,17.654,0.739,18.588c4.416,0.746,7.878-10.538,7.878-10.538
							s2.383,12.643,3.713,15.89c2.086,5.056,6.415,1.857,6.415,1.857s2.25,2.497,4.962,0.742c1.563-1.011,3.021-4.512,3.021-4.512
							s8.807,0.467,6.419-16.984c-3.073-22.461-10.968-41.009-18.218-55.29c-3.514-6.922-33.922-45.967-42.708-50.164
							C407.403,137.924,396.316,145.676,392.26,160.791z"/>
						
							<path style="fill:none;stroke:#263238;stroke-width:2.5;stroke-linecap:round;stroke-linejoin:round;stroke-miterlimit:10;" d="
							M392.26,160.791c-3.498,13.037,0.102,14.156,0.102,14.156s25.353,28.791,26.245,31.145
							c0.904,2.35,16.573,32.242,16.573,32.242s-4.785,17.654,0.739,18.588c4.416,0.746,7.878-10.538,7.878-10.538
							s2.383,12.643,3.713,15.89c2.086,5.056,6.415,1.857,6.415,1.857s2.25,2.497,4.962,0.742c1.563-1.011,3.021-4.512,3.021-4.512
							s8.807,0.467,6.419-16.984c-3.073-22.461-10.968-41.009-18.218-55.29c-3.514-6.922-33.922-45.967-42.708-50.164
							C407.403,137.924,396.316,145.676,392.26,160.791z"/>
						
							<path style="fill:none;stroke:#263238;stroke-width:2.5;stroke-linecap:round;stroke-linejoin:round;stroke-miterlimit:10;" d="
							M453.928,264.133c0,0,2.975-1.548,1.484-14.058"/>
						
							<path style="fill:none;stroke:#263238;stroke-width:2.5;stroke-linecap:round;stroke-linejoin:round;stroke-miterlimit:10;" d="
							M461.597,261.035c0,0,2.516-4.682,0.852-13.69"/>
						<g>
							
								<path style="fill:none;stroke:#263238;stroke-width:2.5;stroke-linecap:round;stroke-linejoin:round;stroke-miterlimit:10;" d="
								M434.835,247.643c0,0,2.688,0.545,3.264,2.996c0.576,2.452-1.619,5.683-1.619,5.683"/>
						</g>
					</g>
				</g>
			</g>
			<g>
				<g>
					<g>
						<path style="fill:#FCD8C3;" d="M236.988,47.193c0,0,0.67-1.57,12.941-2.26"/>
						<path style="fill:#FCD8C3;" d="M240.086,39.524c0,0,1.972-0.179,11.078-0.51"/>
					</g>
					<g>
						<path style="fill:#B5846B;" d="M340.33,108.861c-13.037,3.498-14.156-0.102-14.156-0.102s-28.791-25.353-31.145-26.245
							c-2.35-0.904-32.242-16.573-32.242-16.573s-17.654,4.785-18.588-0.739c-0.746-4.416,10.538-7.878,10.538-7.878
							s-12.643-2.383-15.89-3.713c-5.056-2.087-1.857-6.415-1.857-6.415s-2.497-2.25-0.742-4.963
							c1.011-1.563,4.512-3.021,4.512-3.021s-0.467-8.807,16.984-6.419c22.462,3.073,41.009,10.968,55.29,18.218
							c6.922,3.514,45.966,33.923,50.164,42.708C363.198,93.718,355.445,104.806,340.33,108.861z"/>
						
							<path style="fill:none;stroke:#263238;stroke-width:2.5;stroke-linecap:round;stroke-linejoin:round;stroke-miterlimit:10;" d="
							M340.33,108.861c-13.037,3.498-14.156-0.102-14.156-0.102s-28.791-25.353-31.145-26.245
							c-2.35-0.904-32.242-16.573-32.242-16.573s-17.654,4.785-18.588-0.739c-0.746-4.416,10.538-7.878,10.538-7.878
							s-12.643-2.383-15.89-3.713c-5.056-2.087-1.857-6.415-1.857-6.415s-2.497-2.25-0.742-4.963
							c1.011-1.563,4.512-3.021,4.512-3.021s-0.467-8.807,16.984-6.419c22.462,3.073,41.009,10.968,55.29,18.218
							c6.922,3.514,45.966,33.923,50.164,42.708C363.198,93.718,355.445,104.806,340.33,108.861z"/>
						
							<path style="fill:none;stroke:#263238;stroke-width:2.5;stroke-linecap:round;stroke-linejoin:round;stroke-miterlimit:10;" d="
							M236.988,47.193c0,0,1.549-2.975,14.058-1.484"/>
						
							<path style="fill:none;stroke:#263238;stroke-width:2.5;stroke-linecap:round;stroke-linejoin:round;stroke-miterlimit:10;" d="
							M240.086,39.524c0,0,4.682-2.516,13.69-0.852"/>
						<g>
							
								<path style="fill:none;stroke:#263238;stroke-width:2.5;stroke-linecap:round;stroke-linejoin:round;stroke-miterlimit:10;" d="
								M253.479,66.286c0,0-0.545-2.688-2.996-3.264c-2.452-0.576-5.682,1.619-5.682,1.619"/>
						</g>
					</g>
				</g>
			</g>
			<g>
				<g>
					<g>
						<path style="fill:#263238;" d="M437.204,170.229c0,0-8.821,2.033-15.008,6.847c-6.187,4.814-16.988,15.308-17.315,14.715
							c-0.233-0.447-10.181-10.288-14.835-19.555c-4.96,8.374-15.628,22.176-15.728,23.529
							c-13.021-24.236-44.531-55.746-69.174-69.041c0.727-0.033,14.635-10.808,23.296-15.882
							c-9.141-4.74-18.682-14.375-19.115-14.608c-0.594-0.327,9.908-11.121,14.721-17.309c4.807-6.194,6.847-15.008,6.847-15.008
							s2.54-2.447,3.827-1.427c1.28,1.013,14.862,12.808,20.535,18.082c5.854,5.454,10.294,9.321,12.055,14.815
							c3.434,3.367,6.834,7.381,18.935,19.482c12.108,12.108,16.122,15.509,19.489,18.942c5.494,1.76,9.361,6.201,14.815,12.055
							c5.274,5.674,17.062,19.249,18.082,20.536C439.644,167.682,437.204,170.229,437.204,170.229z"/>
					</g>
					<path style="fill:#9ABAE3;" d="M401.15,129.381l-43.058,43.058c-8.648-10.381-18.982-20.702-29.443-29.376l43.091-43.091
						c2.887,3.06,7.041,7.441,14.502,14.901C393.703,122.333,398.09,126.494,401.15,129.381z"/>
				</g>
				<g>
					<g>
						<path style="fill:#FFFFFF;" d="M437.204,170.229c0,0-0.053,0.013-0.173,0.04c-2.16-2.667-13.455-15.188-18.642-20.629
							c-5.707-5.974-9.808-10.421-15.508-12.161c-3.52-3.507-7.721-6.947-20.395-19.302c-12.661-12.341-16.222-16.462-19.816-19.895
							c-1.894-5.654-6.494-9.681-12.615-15.242c-4.927-4.461-15.348-13.681-19.735-17.042c0.387-1.28,0.573-2.08,0.573-2.08
							s2.54-2.447,3.827-1.427c1.28,1.013,14.862,12.808,20.535,18.082c5.854,5.454,10.294,9.321,12.055,14.815
							c3.434,3.367,6.834,7.381,18.935,19.482c12.108,12.108,16.122,15.509,19.489,18.942c5.494,1.76,9.361,6.201,14.815,12.055
							c5.274,5.674,17.062,19.249,18.082,20.536C439.644,167.682,437.204,170.229,437.204,170.229z"/>
					</g>
				</g>
				<path style="fill:none;stroke:#9ABAE3;stroke-width:2.5;stroke-linecap:round;stroke-linejoin:round;stroke-miterlimit:10;" d="
					M367.31,95.388l-17.831,7.878c0,0-1.884,21.162-22.264,38.605"/>
				<path style="fill:none;stroke:#9ABAE3;stroke-width:2.5;stroke-linecap:round;stroke-linejoin:round;stroke-miterlimit:10;" d="
					M359.472,174.114c0,0,13.994-18.64,37.589-22.795l8.673-17.507"/>
				<g>
					<g>
						
							<path style="fill:none;stroke:#263238;stroke-width:2.5;stroke-linecap:round;stroke-linejoin:round;stroke-miterlimit:10;" d="
							M437.204,170.229c0,0-8.821,2.033-15.008,6.847c-6.187,4.814-16.988,15.308-17.315,14.715
							c-0.233-0.447-10.181-10.288-14.835-19.555c-4.96,8.374-15.628,22.176-15.728,23.529
							c-13.021-24.236-44.531-55.746-69.174-69.041c0.727-0.033,14.635-10.808,23.296-15.882
							c-9.141-4.74-18.682-14.375-19.115-14.608c-0.594-0.327,9.908-11.121,14.721-17.309c4.807-6.194,6.847-15.008,6.847-15.008
							s2.54-2.447,3.827-1.427c1.28,1.013,14.862,12.808,20.535,18.082c5.854,5.454,10.294,9.321,12.055,14.815
							c3.434,3.367,6.834,7.381,18.935,19.482c12.108,12.108,16.122,15.509,19.489,18.942c5.494,1.76,9.361,6.201,14.815,12.055
							c5.274,5.674,17.062,19.249,18.082,20.536C439.644,167.682,437.204,170.229,437.204,170.229z"/>
					</g>
				</g>
			</g>
			<g>
				<path style="fill:#B5846B;" d="M384.128,98.541c5.73-6.368,14.723-7.618,20.087-2.792c5.364,4.826,5.067,13.901-0.662,20.269
					c-5.73,6.368-14.723,7.618-20.087,2.791C378.102,113.984,378.398,104.909,384.128,98.541z"/>
				<path style="fill:#FFFFFF;" d="M383.465,118.81c-1.496-1.348-2.555-3.03-3.169-4.892c0.508,0.805,1.126,1.54,1.854,2.2
					c5.087,4.572,13.611,3.388,19.046-2.649c5.433-6.041,5.711-14.642,0.629-19.217c-0.129-0.114-0.261-0.232-0.397-0.337
					c1.002,0.46,1.942,1.071,2.788,1.834c5.361,4.826,5.065,13.901-0.664,20.269C397.822,122.388,388.832,123.637,383.465,118.81z"
					/>
				<path style="fill:none;stroke:#263238;stroke-width:2.5;stroke-linecap:round;stroke-linejoin:round;stroke-miterlimit:10;" d="
					M384.128,98.541c5.73-6.368,14.723-7.618,20.087-2.792c5.364,4.826,5.067,13.901-0.662,20.269
					c-5.73,6.368-14.723,7.618-20.087,2.791C378.102,113.984,378.398,104.909,384.128,98.541z"/>
				<path style="fill:#263238;" d="M380.193,112.351c0,0-3.327,7.735,0.582,11.045c2.871,2.431,7.263-1.743,7.263-1.743
					S381.921,118.859,380.193,112.351z"/>
				<path style="fill:#263238;" d="M418.58,97.942c-1.997-0.897-3.459,2.13-1.42,3.045C419.32,101.958,420.766,98.924,418.58,97.942
					z"/>
				<path style="fill:#263238;" d="M418.82,89.07c-1.498,0.162-0.745,1.985-0.777,3.908c-0.027,1.602-0.709,3.125,0.411,3.717
					c1.161,0.614,2.428,0.073,2.824-2.858C421.612,91.366,420.382,88.9,418.82,89.07z"/>
				<path style="fill:#263238;" d="M418.002,106.076c0,4.111-3.328,7.449-7.449,7.449c-4.111,0-7.449-3.338-7.449-7.449
					c0-1.367,0.368-2.64,0.999-3.743c-0.132-0.028-0.254-0.066-0.377-0.104c-7.374,3.489-17.529,1.179-20.508-2.602
					c0,0,0.754-1.339,2.357-2.838c-1.084-1.292-1.754-2.97-1.754-4.799c0-4.111,3.338-7.449,7.449-7.449
					c2.555,0,4.809,1.282,6.148,3.244c1.678-3.413,5.186-5.752,9.25-5.752c5.695,0,10.315,4.611,10.315,10.315
					c0,2.791-1.103,5.309-2.895,7.166C416.418,100.767,418.002,103.238,418.002,106.076z"/>
			</g>
		</g>
	</g>
</g>
<g id="Character_6">
	<g>
		<g>
			<g>
				<path style="fill:#9ABAE3;" d="M306.337,374.323c24.24-13.027,55.751-44.538,69.04-69.174
					c0.073,1.9,34.697,54.939,34.697,54.939c-5.701,8.408-6.814,6.814-24.503,24.503c-17.688,17.689-16.095,18.802-24.503,24.503
					C361.07,409.093,309.938,374.603,306.337,374.323z"/>
				<path style="fill:#FFFFFF;" d="M357.279,406.731c7.087-5.061,9.801-9.028,26.269-25.496
					c15.882-15.882,20.235-18.222,24.149-25.096c1.474,2.46,2.374,3.947,2.374,3.947c-5.701,8.408-6.814,6.814-24.503,24.503
					c-17.689,17.689-16.095,18.802-24.503,24.503C361.066,409.091,359.639,408.198,357.279,406.731z"/>
				<path style="fill:none;stroke:#263238;stroke-width:2.5;stroke-linecap:round;stroke-linejoin:round;stroke-miterlimit:10;" d="
					M304.021,372.243c24.24-13.027,54.699-46.809,67.989-71.445c0.073,1.9,38.065,59.29,38.065,59.29
					c-5.701,8.408-6.814,6.814-24.503,24.503c-17.688,17.689-16.095,18.802-24.503,24.503
					C361.07,409.093,307.622,372.523,304.021,372.243z"/>
				<path style="fill:none;stroke:#263238;stroke-width:2.5;stroke-linecap:round;stroke-linejoin:round;stroke-miterlimit:10;" d="
					M364.253,361.479c0,0-3.135,5.165-4.181,12.878"/>
				<path style="fill:none;stroke:#263238;stroke-width:2.5;stroke-linecap:round;stroke-linejoin:round;stroke-miterlimit:10;" d="
					M366.51,370.572c0,0-2.215,3.593-2.257,5.123"/>
			</g>
			<g>
				<g>
					<g>
						<path style="fill:#FCD8C3;" d="M237.21,452.807c0,0,0.67,1.57,12.94,2.26"/>
						<path style="fill:#FCD8C3;" d="M240.308,460.476c0,0,1.972,0.179,11.078,0.51"/>
					</g>
					<path style="fill:#F0BA92;" d="M340.496,389.585c-12.254-5.865-10.458,1.002-10.458,1.002s-34.363,28.875-36.718,29.767
						c-2.35,0.904-30.311,13.705-30.311,13.705s-17.654-4.785-18.588,0.739c-0.746,4.416,10.538,7.878,10.538,7.878
						s-12.643,2.383-15.89,3.713c-5.057,2.087-1.857,6.415-1.857,6.415s-2.497,2.25-0.742,4.963
						c1.011,1.563,4.512,3.021,4.512,3.021s-0.467,8.807,16.984,6.419c22.462-3.073,41.009-10.968,55.29-18.218
						c6.922-3.514,45.544-33.157,49.742-41.942C362.998,407.047,354.954,396.505,340.496,389.585z"/>
					
						<path style="fill:none;stroke:#263238;stroke-width:2.5;stroke-linecap:round;stroke-linejoin:round;stroke-miterlimit:10;" d="
						M340.496,389.585c-12.254-5.865-10.458,1.002-10.458,1.002s-34.363,28.875-36.718,29.767
						c-2.35,0.904-30.311,13.705-30.311,13.705s-17.654-4.785-18.588,0.739c-0.746,4.416,10.538,7.878,10.538,7.878
						s-12.643,2.383-15.89,3.713c-5.057,2.087-1.857,6.415-1.857,6.415s-2.497,2.25-0.742,4.963
						c1.011,1.563,4.512,3.021,4.512,3.021s-0.467,8.807,16.984,6.419c22.462-3.073,41.009-10.968,55.29-18.218
						c6.922-3.514,45.544-33.157,49.742-41.942C362.998,407.047,354.954,396.505,340.496,389.585z"/>
					
						<path style="fill:none;stroke:#263238;stroke-width:2.5;stroke-linecap:round;stroke-linejoin:round;stroke-miterlimit:10;" d="
						M237.21,452.807c0,0,1.549,2.975,14.058,1.484"/>
					
						<path style="fill:none;stroke:#263238;stroke-width:2.5;stroke-linecap:round;stroke-linejoin:round;stroke-miterlimit:10;" d="
						M240.308,460.476c0,0,4.682,2.516,13.69,0.852"/>
					<g>
						
							<path style="fill:none;stroke:#263238;stroke-width:2.5;stroke-linecap:round;stroke-linejoin:round;stroke-miterlimit:10;" d="
							M253.701,433.714c0,0-0.545,2.688-2.996,3.264c-2.451,0.576-5.682-1.619-5.682-1.619"/>
					</g>
				</g>
			</g>
			<g>
				<g>
					<g>
						<path style="fill:#FCD8C3;" d="M453.928,236.089c0,0,1.57,0.67,2.26,12.94"/>
						<path style="fill:#FCD8C3;" d="M461.597,239.187c0,0,0.179,1.972,0.51,11.078"/>
					</g>
					<path style="fill:#F0BA92;" d="M390.707,339.374c-5.865-12.254,1.002-10.458,1.002-10.458s28.875-34.363,29.767-36.718
						c0.904-2.35,13.705-30.311,13.705-30.311s-4.785-17.654,0.739-18.588c4.416-0.746,7.878,10.538,7.878,10.538
						s2.383-12.643,3.713-15.89c2.086-5.057,6.415-1.857,6.415-1.857s2.25-2.497,4.962-0.742c1.563,1.011,3.021,4.512,3.021,4.512
						s8.807-0.467,6.419,16.984c-3.073,22.461-10.968,41.009-18.218,55.29c-3.514,6.922-33.157,45.544-41.942,49.742
						C408.168,361.876,397.627,353.833,390.707,339.374z"/>
					
						<path style="fill:none;stroke:#263238;stroke-width:2.5;stroke-linecap:round;stroke-linejoin:round;stroke-miterlimit:10;" d="
						M390.707,339.374c-5.865-12.254,1.002-10.458,1.002-10.458s28.875-34.363,29.767-36.718
						c0.904-2.35,13.705-30.311,13.705-30.311s-4.785-17.654,0.739-18.588c4.416-0.746,7.878,10.538,7.878,10.538
						s2.383-12.643,3.713-15.89c2.086-5.057,6.415-1.857,6.415-1.857s2.25-2.497,4.962-0.742c1.563,1.011,3.021,4.512,3.021,4.512
						s8.807-0.467,6.419,16.984c-3.073,22.461-10.968,41.009-18.218,55.29c-3.514,6.922-33.157,45.544-41.942,49.742
						C408.168,361.876,397.627,353.833,390.707,339.374z"/>
					
						<path style="fill:none;stroke:#263238;stroke-width:2.5;stroke-linecap:round;stroke-linejoin:round;stroke-miterlimit:10;" d="
						M453.928,236.089c0,0,2.975,1.548,1.484,14.058"/>
					
						<path style="fill:none;stroke:#263238;stroke-width:2.5;stroke-linecap:round;stroke-linejoin:round;stroke-miterlimit:10;" d="
						M461.597,239.187c0,0,2.516,4.682,0.852,13.69"/>
					<g>
						
							<path style="fill:none;stroke:#263238;stroke-width:2.5;stroke-linecap:round;stroke-linejoin:round;stroke-miterlimit:10;" d="
							M434.835,252.58c0,0,2.688-0.545,3.264-2.996c0.576-2.452-1.619-5.683-1.619-5.683"/>
					</g>
				</g>
			</g>
			<g>
				<path style="fill:#F0BA92;" d="M396.895,377.499c6.368,5.73,7.618,14.723,2.792,20.087c-4.826,5.364-13.901,5.067-20.269-0.662
					c-6.368-5.73-7.618-14.723-2.792-20.087C381.452,371.472,390.527,371.769,396.895,377.499z"/>
				<path style="fill:#FFFFFF;" d="M376.626,376.835c1.348-1.496,3.03-2.555,4.892-3.169c-0.805,0.509-1.54,1.126-2.2,1.854
					c-4.572,5.087-3.388,13.611,2.649,19.046c6.041,5.433,14.642,5.711,19.217,0.629c0.114-0.129,0.232-0.261,0.337-0.397
					c-0.46,1.002-1.071,1.942-1.834,2.788c-4.825,5.36-13.901,5.065-20.269-0.664C373.048,391.193,371.799,382.203,376.626,376.835z
					"/>
				<path style="fill:none;stroke:#263238;stroke-width:2.5;stroke-linecap:round;stroke-linejoin:round;stroke-miterlimit:10;" d="
					M396.895,377.499c6.368,5.73,7.618,14.723,2.792,20.087c-4.826,5.364-13.901,5.067-20.269-0.662
					c-6.368-5.73-7.618-14.723-2.792-20.087C381.452,371.472,390.527,371.769,396.895,377.499z"/>
				<path style="fill:#263238;" d="M383.085,373.563c0,0-7.735-3.327-11.045,0.582c-2.431,2.871,1.743,7.263,1.743,7.263
					S376.577,375.292,383.085,373.563z"/>
				<path style="fill:#263238;" d="M388.562,401.932c0,0-7.484-24.113,7.039-38.634c10.206-10.204,23.172-7.928,25.276,0.776
					c2.402,9.94-10.516,11.513-14.19,15.188c-4.102,4.102,0.163,11.917-6.568,19.04
					C395.352,403.345,388.562,401.932,388.562,401.932z"/>
				<path style="fill:#263238;" d="M424.49,372.85c0.897-1.997-2.13-3.459-3.045-1.421
					C420.474,373.589,423.508,375.036,424.49,372.85z"/>
				<path style="fill:#263238;" d="M421.248,374.688c-1.278-1.372-2.92,0.415-5.25,1.492c-1.941,0.897-4.261,1.108-4.162,2.544
					c0.103,1.49,1.669,2.417,5.471,1.115C420.513,378.741,422.581,376.117,421.248,374.688z"/>
			</g>
		</g>
	</g>
</g>
<g id="Character_5">
	<g>
		<g>
			<g>
				<g>
					<g>
						<path style="fill:#FCD8C3;" d="M46.072,235.867c0,0-1.57,0.67-2.26,12.94"/>
						<path style="fill:#FCD8C3;" d="M38.403,238.965c0,0-0.179,1.972-0.51,11.078"/>
					</g>
					<g>
						<path style="fill:#915A3F;" d="M107.739,339.209c3.498-13.037-0.102-14.156-0.102-14.156s-25.353-28.79-26.245-31.145
							c-0.904-2.35-16.573-32.242-16.573-32.242s4.785-17.654-0.739-18.588c-4.416-0.746-7.878,10.538-7.878,10.538
							s-2.383-12.643-3.713-15.89c-2.087-5.056-6.415-1.857-6.415-1.857s-2.25-2.497-4.963-0.742
							c-1.563,1.011-3.021,4.512-3.021,4.512s-8.807-0.467-6.419,16.984c3.073,22.461,10.968,41.009,18.218,55.29
							c3.514,6.922,33.922,45.967,42.708,50.164C92.597,362.076,103.684,354.324,107.739,339.209z"/>
						
							<path style="fill:none;stroke:#263238;stroke-width:2.5;stroke-linecap:round;stroke-linejoin:round;stroke-miterlimit:10;" d="
							M107.739,339.209c3.498-13.037-0.102-14.156-0.102-14.156s-25.353-28.79-26.245-31.145
							c-0.904-2.35-16.573-32.242-16.573-32.242s4.785-17.654-0.739-18.588c-4.416-0.746-7.878,10.538-7.878,10.538
							s-2.383-12.643-3.713-15.89c-2.087-5.056-6.415-1.857-6.415-1.857s-2.25-2.497-4.963-0.742
							c-1.563,1.011-3.021,4.512-3.021,4.512s-8.807-0.467-6.419,16.984c3.073,22.461,10.968,41.009,18.218,55.29
							c3.514,6.922,33.922,45.967,42.708,50.164C92.597,362.076,103.684,354.324,107.739,339.209z"/>
						
							<path style="fill:none;stroke:#263238;stroke-width:2.5;stroke-linecap:round;stroke-linejoin:round;stroke-miterlimit:10;" d="
							M46.072,235.867c0,0-2.975,1.549-1.484,14.058"/>
						
							<path style="fill:none;stroke:#263238;stroke-width:2.5;stroke-linecap:round;stroke-linejoin:round;stroke-miterlimit:10;" d="
							M38.403,238.965c0,0-2.516,4.682-0.852,13.69"/>
						<g>
							
								<path style="fill:none;stroke:#263238;stroke-width:2.5;stroke-linecap:round;stroke-linejoin:round;stroke-miterlimit:10;" d="
								M65.165,252.357c0,0-2.688-0.545-3.264-2.996c-0.576-2.452,1.619-5.683,1.619-5.683"/>
						</g>
					</g>
				</g>
			</g>
			<g>
				<g>
					<g>
						<path style="fill:#FCD8C3;" d="M263.012,452.807c0,0-0.67,1.57-12.94,2.26"/>
						<path style="fill:#FCD8C3;" d="M259.914,460.476c0,0-1.972,0.179-11.078,0.51"/>
					</g>
					<g>
						<path style="fill:#915A3F;" d="M159.67,391.139c13.037-3.498,14.156,0.102,14.156,0.102s28.79,25.353,31.145,26.245
							c2.35,0.904,32.242,16.573,32.242,16.573s17.654-4.785,18.588,0.739c0.746,4.416-10.538,7.878-10.538,7.878
							s12.643,2.383,15.89,3.713c5.056,2.087,1.857,6.415,1.857,6.415s2.497,2.25,0.742,4.963c-1.011,1.563-4.512,3.021-4.512,3.021
							s0.467,8.807-16.984,6.419c-22.462-3.073-41.01-10.968-55.29-18.218c-6.922-3.514-45.966-33.923-50.164-42.708
							C136.802,406.281,144.555,395.194,159.67,391.139z"/>
						
							<path style="fill:none;stroke:#263238;stroke-width:2.5;stroke-linecap:round;stroke-linejoin:round;stroke-miterlimit:10;" d="
							M159.67,391.139c13.037-3.498,14.156,0.102,14.156,0.102s28.79,25.353,31.145,26.245c2.35,0.904,32.242,16.573,32.242,16.573
							s17.654-4.785,18.588,0.739c0.746,4.416-10.538,7.878-10.538,7.878s12.643,2.383,15.89,3.713
							c5.056,2.087,1.857,6.415,1.857,6.415s2.497,2.25,0.742,4.963c-1.011,1.563-4.512,3.021-4.512,3.021s0.467,8.807-16.984,6.419
							c-22.462-3.073-41.01-10.968-55.29-18.218c-6.922-3.514-45.966-33.923-50.164-42.708
							C136.802,406.281,144.555,395.194,159.67,391.139z"/>
						
							<path style="fill:none;stroke:#263238;stroke-width:2.5;stroke-linecap:round;stroke-linejoin:round;stroke-miterlimit:10;" d="
							M263.012,452.807c0,0-1.548,2.975-14.058,1.484"/>
						
							<path style="fill:none;stroke:#263238;stroke-width:2.5;stroke-linecap:round;stroke-linejoin:round;stroke-miterlimit:10;" d="
							M259.914,460.476c0,0-4.682,2.516-13.69,0.852"/>
						<g>
							
								<path style="fill:none;stroke:#263238;stroke-width:2.5;stroke-linecap:round;stroke-linejoin:round;stroke-miterlimit:10;" d="
								M246.521,433.714c0,0,0.545,2.688,2.996,3.264c2.452,0.576,5.683-1.619,5.683-1.619"/>
						</g>
					</g>
				</g>
			</g>
			<g>
				<g>
					<g>
						<g>
							<path style="fill:#9ABAE3;" d="M33.131,271.297c0,0,3.622,2.74,15.072,1.37c7.78-0.936,20.139-6.41,20.8-6.272
								c0.95,0.207,7.877,17.13,14.115,28.367c1.666,3.002,27.114,31.493,27.114,31.493c5.48-8.097,14.528-20.532,14.562-21.255
								c5.604,3.553,21.337,22.632,33.875,35.211c12.579,12.538,31.658,28.271,35.211,33.875
								c-0.723,0.034-13.158,9.082-21.255,14.562c0,0,28.491,25.448,31.493,27.114c11.237,6.238,28.16,13.164,28.367,14.115
								c0.138,0.661-5.336,13.02-6.272,20.8c-1.37,11.45,1.37,15.072,1.37,15.072s-5.246,2.107-6.541,1.088
								c-1.274-1.012-33.207-14.094-39.838-18.122c-6.169-3.746-43.039-35.727-49.49-43.294c-3.429-3.36-6.823-7.36-18.859-19.396
								c-12.035-12.035-16.035-15.43-19.395-18.858c-7.567-6.451-39.548-43.322-43.294-49.491
								c-4.028-6.63-17.11-38.564-18.122-39.838C31.024,276.543,33.131,271.297,33.131,271.297z"/>
						</g>
					</g>
				</g>
				<g>
					<g>
						<g>
							<path style="fill:#FFFFFF;" d="M39.988,295.794c3.794,8.297,7.739,16.717,9.653,19.747
								c3.856,6.1,36.464,42.413,44.148,48.733c3.415,3.374,7.477,6.692,19.712,18.514c12.242,11.829,15.712,15.767,19.196,19.072
								c6.582,7.45,43.996,38.791,50.234,42.426c6.699,3.918,38.846,16.442,40.141,17.433c0.558,0.434,1.859,0.262,3.146-0.062
								c0.516,2.967,1.363,4.09,1.363,4.09s-5.246,2.107-6.541,1.088c-1.274-1.012-33.207-14.094-39.838-18.122
								c-6.169-3.746-43.039-35.727-49.49-43.294c-3.429-3.36-6.823-7.36-18.859-19.396c-12.035-12.035-16.035-15.43-19.395-18.858
								c-7.567-6.451-39.548-43.322-43.294-49.491C48.161,314.363,43.892,304.752,39.988,295.794z"/>
						</g>
					</g>
				</g>
				<g>
					
						<line style="fill:none;stroke:#263238;stroke-width:2.5;stroke-linecap:round;stroke-linejoin:round;stroke-miterlimit:10;" x1="172.12" y1="388.755" x2="163.816" y2="393.526"/>
					
						<line style="fill:none;stroke:#263238;stroke-width:2.5;stroke-linecap:round;stroke-linejoin:round;stroke-miterlimit:10;" x1="168.746" y1="390.362" x2="163.484" y2="390.089"/>
				</g>
				<g>
					
						<line style="fill:none;stroke:#263238;stroke-width:2.5;stroke-linecap:round;stroke-linejoin:round;stroke-miterlimit:10;" x1="110.62" y1="327.256" x2="105.85" y2="335.559"/>
					
						<line style="fill:none;stroke:#263238;stroke-width:2.5;stroke-linecap:round;stroke-linejoin:round;stroke-miterlimit:10;" x1="109.013" y1="330.629" x2="109.287" y2="335.892"/>
				</g>
				<g>
					<g>
						<g>
							
								<path style="fill:none;stroke:#263238;stroke-width:2.5;stroke-linecap:round;stroke-linejoin:round;stroke-miterlimit:10;" d="
								M33.131,271.297c0,0,3.622,2.74,15.072,1.37c7.78-0.936,20.139-6.41,20.8-6.272c0.95,0.207,7.877,17.13,14.115,28.367
								c1.666,3.002,27.114,31.493,27.114,31.493c5.48-8.097,15.868-24.733,15.902-25.456c5.604,3.553,19.997,26.833,32.535,39.412
								c12.579,12.538,34.415,27.185,37.968,32.789c-0.723,0.034-15.914,10.167-24.011,15.648c0,0,28.491,25.448,31.493,27.114
								c11.237,6.238,28.16,13.164,28.367,14.115c0.138,0.661-5.336,13.02-6.272,20.8c-1.37,11.45,1.37,15.072,1.37,15.072
								s-5.246,2.107-6.541,1.088c-1.274-1.012-33.207-14.094-39.838-18.122c-6.169-3.746-43.039-35.727-49.49-43.294
								c-3.429-3.36-6.823-7.36-18.859-19.396c-12.035-12.035-16.035-15.43-19.395-18.858c-7.567-6.451-39.548-43.322-43.294-49.491
								c-4.028-6.63-17.11-38.564-18.122-39.838C31.024,276.543,33.131,271.297,33.131,271.297z"/>
						</g>
					</g>
				</g>
			</g>
			<g>
				<path style="fill:#915A3F;" d="M115.054,402.434c-5.73,6.368-14.723,7.618-20.087,2.792c-5.364-4.826-5.068-13.901,0.662-20.269
					c5.73-6.368,14.723-7.618,20.087-2.792C121.08,386.991,120.783,396.066,115.054,402.434z"/>
				<path style="fill:#FFFFFF;" d="M115.717,382.165c1.496,1.348,2.555,3.03,3.169,4.892c-0.509-0.805-1.126-1.54-1.854-2.2
					c-5.087-4.572-13.61-3.388-19.046,2.649c-5.433,6.041-5.711,14.642-0.629,19.217c0.129,0.114,0.261,0.232,0.397,0.337
					c-1.002-0.46-1.942-1.071-2.788-1.834c-5.361-4.825-5.066-13.901,0.664-20.269C101.359,378.587,110.35,377.338,115.717,382.165z
					"/>
				<path style="fill:none;stroke:#263238;stroke-width:2.5;stroke-linecap:round;stroke-linejoin:round;stroke-miterlimit:10;" d="
					M115.054,402.434c-5.73,6.368-14.723,7.618-20.087,2.792c-5.364-4.826-5.068-13.901,0.662-20.269
					c5.73-6.368,14.723-7.618,20.087-2.792C121.08,386.991,120.783,396.066,115.054,402.434z"/>
				<path style="fill:#263238;" d="M118.989,388.624c0,0,3.327-7.735-0.582-11.045c-2.87-2.431-7.263,1.743-7.263,1.743
					S117.26,382.116,118.989,388.624z"/>
			</g>
		</g>
		<g>
			<g>
				<path style="fill:#EC644E;" d="M96.328,371.548c0.451,1.052,1.783,3.204,1.913,3.676c0.13,0.485-17.819,18.981-5.343,31.457
					c6.969,6.969,15.599,4.94,24.508-0.485c8.91-5.425,10.72-2.685,12.148-2.446c1.442,0.239,6.074,0.048,5.616-4.947
					c-0.451-5.001,5.735-40.556-15.674-49.071C107.685,345.033,95.884,370.489,96.328,371.548z M114.675,382.246
					c9.661,8.226-2.01,21.066-2.01,21.066c-12.155-3.519-18.94-14.622-18.94-14.622S104.323,373.439,114.675,382.246z"/>
			</g>
			<g>
				<path style="fill:none;stroke:#263238;stroke-width:2.5;stroke-linecap:round;stroke-linejoin:round;stroke-miterlimit:10;" d="
					M96.328,371.548c0.451,1.052,1.783,3.204,1.913,3.676c0.13,0.485-17.819,18.981-5.343,31.457
					c6.969,6.969,15.599,4.94,24.508-0.485c8.91-5.425,10.72-2.685,12.148-2.446c1.442,0.239,6.074,0.048,5.616-4.947
					c-0.451-5.001,5.735-40.556-15.674-49.071C107.685,345.033,95.884,370.489,96.328,371.548z M114.675,382.246
					c9.661,8.226-2.01,21.066-2.01,21.066c-12.155-3.519-18.94-14.622-18.94-14.622S104.323,373.439,114.675,382.246z"/>
			</g>
			<path style="fill:none;stroke:#263238;stroke-width:2.5;stroke-linecap:round;stroke-linejoin:round;stroke-miterlimit:10;" d="
				M130.075,375.867c-0.117-3.763-1.535-14.655-9.595-19.899"/>
			
				<line style="fill:none;stroke:#263238;stroke-width:2.5;stroke-linecap:round;stroke-linejoin:round;stroke-miterlimit:10;" x1="130.3" y1="384.9" x2="130.365" y2="380.4"/>
		</g>
	</g>
</g>
<g id="World">
	<g>
		<circle style="fill:#FFFFFF;" cx="249.999" cy="250.001" r="134.669"/>
		<g>
			
				<path style="fill:#9ABAE3;stroke:#263238;stroke-width:2.5;stroke-linecap:round;stroke-linejoin:round;stroke-miterlimit:10;" d="
				M279.9,312.026c-1.684,4.492,1.123,4.679,1.31,6.55c0.187,1.871,0,5.427-5.427,10.855c-5.427,5.427-14.41,4.304-16.282,6.55
				c-1.872,2.246-5.053,11.79-9.545,14.972c-4.491,3.182-5.24,1.31-11.603,2.62c-6.363,1.31-11.229,9.545-13.1,13.475
				c-1.872,3.93,0.374,10.48-4.117,10.667c-4.492,0.187-6.55-9.545-10.667-14.785c-4.117-5.24-5.427-9.919-6.737-16.095
				c-1.31-6.176,0.749-19.089,0-24.142c-0.749-5.053-14.223-14.036-19.089-20.212c-4.866-6.176-11.603-18.528-11.229-22.645
				c0.374-4.117,3.368-8.609,5.614-10.293c2.246-1.684,1.31-2.62,1.684-4.117c0.374-1.497,2.246-1.871,2.62-3.743
				c0.374-1.872-1.123-7.486-2.994-8.422c-1.871-0.936-3.182,2.246-4.305,1.684c-1.123-0.561-4.492-4.491-5.802-4.866
				c-1.31-0.374-0.936,2.433-2.807-1.123c-1.871-3.556-2.807-12.539-4.304-14.036c-1.497-1.497-2.62,2.62-6.176,0
				c-3.556-2.62-5.053-7.673-6.55-8.422c-1.497-0.749-3.556,0.187-5.094-2.807c-1.542-2.994,1.351-8.422,0-7.86
				c-1.355,0.561-4.263,4.866-5.012,0.749c-0.749-4.117,3.743-17.966,2.994-25.452c-0.749-7.486,1.871-15.346,7.112-21.709
				c0,0,0.749-4.117,1.497-6.737c0.749-2.62,16.844-13.1,18.715-16.095c0.779-1.25,1.04-3.212,1.321-5.323
				c22.147-16.301,49.508-25.931,79.119-25.931c3.664,0,7.299,0.146,10.888,0.438c0.124,0.172,0.247,0.337,0.374,0.498
				c1.621,2.059,3.369,3.369,8.111,5.117c4.739,1.744,5.862,3.99,4.866,5.861c-0.999,1.871-2.62,2.246-4.492,2.373
				c-1.871,0.124-3.619-0.876-5.614,0.374c-1.999,1.246-3.994,7.984-6.614,8.358c-2.62,0.374-7.235-5.989-8.235-7.86
				c-0.999-1.872,2.246-5.865,0.715-7.737c-1.531-1.872-4.207-1.497-8.452-1.872c-4.241-0.374-14.096,1.25-13.722,2.871
				c0.374,1.621,14.47-0.251,14.845,2.994c0.374,3.245-10.353,8.732-12.225,8.235c-1.872-0.498-4.368-3.743-7.112-4.117
				c-2.747-0.374-4.993,1.871-6.719,2.122c-1.726,0.247-3.762-1.872-6.382-1.374c-2.62,0.498-3.245,2.743-4.619,3.619
				c-1.37,0.872-4.615,0.872-4.989,2.867c-0.374,1.999,4.117,3.122,5.24,4.368c1.123,1.247-1.374,5.491-0.251,6.363
				c1.123,0.872,8.111-5.24,9.859-6.737c1.744-1.497,3.241-7.984,6.985-7.86c3.743,0.124,4.993,6.487,6.24,7.112
				c1.246,0.625,3.994-1.497,8.111-0.625c4.117,0.876,6.985,9.859,7.733,12.603c0.749,2.743,2.497,5.491,0.999,6.614
				c-1.497,1.123-8.235-0.749-9.107-2.497c-0.876-1.748,4.492-4.368,4.117-4.99c-0.374-0.625-3.496-1.497-5.116-0.52
				c-1.621,0.977-2.37,3.013-4.117,3.515c-1.748,0.498-6.363-4.742-7.61-3.245c-1.25,1.497,1.247,6.24,2.493,7.362
				c1.25,1.123,5.865,1.744,6.24,2.994c0.374,1.246-3.118,3.99-7.362,3.743c-4.241-0.251-7.733-3.496-9.357-2.122
				c-1.621,1.374-0.749,4.99-1.871,6.24c-1.123,1.246-7.235,0.374-10.23,3.616c-2.994,3.245-4.368,8.111-7.362,10.855
				c-2.994,2.747-4.365-0.749-8.358,3.121c-3.994,3.867-4.615,12.476-4.743,15.47c-0.123,2.994,0,5.364-0.995,4.989
				c-0.999-0.374-2.373-2.994-2.747-4.615c-0.374-1.621,0.876-4.368,0.876-5.364c0-0.999-5.742-6.116-9.11-6.614
				s-6.363,2.246-8.856,4.241c-2.497,1.999-6.988,1.624-8.609,3.245c-1.624,1.621-2.871,15.972-1.624,19.34
				c1.25,3.369,2.871,3.369,6.865,1.621c3.99-1.748,1.744-5.117,4.117-4.368c2.37,0.749,3.616,3.245,3.616,5.24
				c0,1.999-4.739,6.737-4.117,8.111c0.625,1.374,4.742-0.251,6.737,0.374c1.999,0.625,2.994,1.872,2.373,6.988
				c-0.625,5.113-0.251,9.107,2.744,10.791c2.995,1.684,4.679-2.433,5.989-1.872s3.182,3.556,5.053,3.369
				c1.871-0.187,0.936-1.871,4.492-2.994c3.556-1.123,2.246-1.871,2.994-4.117c0.749-2.246,2.994-4.117,5.427-2.994
				c2.433,1.123,0.749,2.807,0.936,4.679c0.187,1.872,4.492,2.059,7.86,3.182c3.369,1.123,5.24,0,11.978,2.246
				c6.738,2.246,7.112,8.983,9.919,10.106c2.807,1.123,12.165-0.749,18.902,4.117c6.737,4.866,4.866,13.849,8.235,16.469
				c3.369,2.62,15.908,6.176,20.774,7.112c4.866,0.936,5.614-2.433,9.545-1.497c3.93,0.936,6.176,2.059,7.486,7.486
				C296.212,297.526,281.584,307.534,279.9,312.026z"/>
			
				<path style="fill:#9ABAE3;stroke:#263238;stroke-width:2.5;stroke-linecap:round;stroke-linejoin:round;stroke-miterlimit:10;" d="
				M179.338,216.33c0.125,1.059,3.244,1.497,6.987,3.618c3.743,2.121,5.115,8.359,7.112,8.234c1.996-0.125,1.372-2.994,2.121-3.743
				c0.749-0.749,1.996-2.371,0-3.992c-1.996-1.622-3.939-5.116-7.584-5.615c-3.645-0.499-4.268-1.996-5.89-1.871
				C180.461,213.086,179.088,214.209,179.338,216.33z"/>
			<path style="fill:none;stroke:#263238;stroke-width:2.5;stroke-linecap:round;stroke-linejoin:round;stroke-miterlimit:10;" d="
				M199.924,226.81c-0.556,1.529,0,2.62,3.992,3.618c3.993,0.998,7.736-0.998,6.488-1.809c-1.248-0.811-3.119-0.437-2.37-1.809
				c0.749-1.372,0.494-3.369-2.748-2.994C202.046,224.19,200.423,225.438,199.924,226.81z"/>
			<path style="fill:none;stroke:#263238;stroke-width:2.5;stroke-linecap:round;stroke-linejoin:round;stroke-miterlimit:10;" d="
				M213.898,227.236c-1.362,0.197-2.121,2.569-0.749,4.066c1.372,1.497,1.372,1.248,2.994,0c1.622-1.248,4.117-1.868,3.494-3.117
				C219.014,226.935,215.271,227.038,213.898,227.236z"/>
			<path style="fill:none;stroke:#263238;stroke-width:2.5;stroke-linecap:round;stroke-linejoin:round;stroke-miterlimit:10;" d="
				M224.753,232.333c0.61-1.871,3.743-0.033,5.115,1.963c1.372,1.996,0.749,4.866,0,6.987c-0.749,2.121-1.248,4.616-2.994,3.618
				c-1.747-0.998,0.125-3.993-0.125-5.739C226.5,237.415,224.254,233.864,224.753,232.333z"/>
			
				<path style="fill:#9ABAE3;stroke:#263238;stroke-width:2.5;stroke-linecap:round;stroke-linejoin:round;stroke-miterlimit:10;" d="
				M278.527,128.245c-0.653,1.567,2.371,2.121,4.117,3.119c1.747,0.998,3.119,1.622,4.117,0c0.998-1.622-0.374-3.493-1.747-3.868
				C283.643,127.122,279.151,126.748,278.527,128.245z"/>
			
				<path style="fill:#9ABAE3;stroke:#263238;stroke-width:2.5;stroke-linecap:round;stroke-linejoin:round;stroke-miterlimit:10;" d="
				M302.108,142.842c1.152,1.215,3.119,0.998,4.491,2.745c1.373,1.747,0.873,4.741,2.62,5.614c1.747,0.873,2.994,0,3.119-1.248
				c0.125-1.247-2.495-4.367-2.246-4.99c0.249-0.624,3.618,0.873,4.367,2.745c0.749,1.872-0.749,4.492,0.998,4.991
				c1.747,0.499,1.372-1.747,2.121-2.246c0.748-0.499,2.371-0.249,2.246-1.747c-0.125-1.497-2.121-4.741-3.743-5.864
				c-1.622-1.123-2.87-2.37-5.615-2.994c-2.745-0.624-5.365-0.125-6.738,0.998C302.358,141.969,301.398,142.094,302.108,142.842z"/>
			
				<path style="fill:#9ABAE3;stroke:#263238;stroke-width:2.5;stroke-linecap:round;stroke-linejoin:round;stroke-miterlimit:10;" d="
				M356.089,166.356c-0.15,0.621-0.378,1.078-0.704,1.314c-2.62,1.872-5.742-4.615-9.357-5.861c-3.619-1.25-5.24-5.865-5.989-4.866
				c-0.749,0.995-0.501,2.369-1.624,3.99c-1.123,1.624-2.744,1.25-3.492,4.368c-0.749,3.118,3.492,8.86,2.497,10.731
				c-0.999,1.872-2.246,1.247-4.245,1.123c-1.995-0.127-1.621,1.621-4.237,0.872c-2.62-0.749-0.378-3.994-4.495-7.86
				c-4.117-3.866-5.491-4.615-4.611-6.363c0.883-1.748-0.378-4.241,1.493-4.492c1.871-0.251,3.369,2.497,4.615,3.245
				c1.247,0.749,2.871-1.497,2.994-3.496c0.124-1.995-4.368-4.739-5.989-6.288c-1.621-1.553-1.748-7.187-1.123-8.309
				c0.625-1.123,2.496-0.749,2.995-3.492c0.292-1.613-2.261-4.308-4.417-6.255C334.114,143.059,346.203,153.798,356.089,166.356z"/>
			
				<path style="fill:#9ABAE3;stroke:#263238;stroke-width:2.5;stroke-linecap:round;stroke-linejoin:round;stroke-miterlimit:10;" d="
				M374.721,278.215c0.374-3.994-1.621-4.244,0.374-11.603c1.999-7.362-2.119-15.223-3.616-16.843
				c-1.497-1.625-4.742-1.123-7.362,0.498c-2.62,1.621-0.749,2.871-2.497,3.492c-1.744,0.625-3.492-0.374-5.113-0.247
				c-1.625,0.124-3.122,4.241-6.614,4.117c-3.492-0.127-5.738-5.117-8.358-8.673c-2.62-3.556-7.987-5.802-9.732-10.17
				c-1.748-4.364,1.621-11.102,0.872-16.219c-0.749-5.117-4.117-3.994-4.742-6.861c-0.621-2.871,0.501-1.497,1.374-4.244
				c0.872-2.744-0.999-4.241,0.749-8.983c1.748-4.739,4.866-7.111,4.117-9.23c-0.749-2.122-3.118-5.615-3.245-8.104
				c-0.124-2.485,2.373-2.377,7.112-5.873c4.742-3.492,5.989-3.242,9.608-1.995c3.619,1.246,5.865,1.871,7.984,2.246
				c2.122,0.374,4.993,5.865,5.865,5.614c0.872-0.251,0.999-1.871,1.374-4.241c0.157-1.003,0.831-1.943,1.557-2.688
				c12.827,20.519,20.242,44.766,20.242,70.746c0,29.356-9.466,56.504-25.52,78.554
				C371.877,308.085,374.347,282.206,374.721,278.215z"/>
		</g>
		
			<circle style="fill:none;stroke:#263238;stroke-width:2.5;stroke-linecap:round;stroke-linejoin:round;stroke-miterlimit:10;" cx="249.999" cy="250.001" r="134.669"/>
	</g>
</g>
<g id="Heart">
	<g>
		<path style="fill:#EC644E;" d="M298.898,266.353c-15.801,23.722-42.385,38.597-47.931,41.527c-0.649,0.343-1.416,0.343-2.065,0
			c-5.546-2.93-32.132-17.806-47.943-41.527c-17.709-26.587-11.006-58.723,13.899-63.262c18.366-3.346,28.993,12.915,33.098,21.087
			c0.821,1.634,3.136,1.634,3.957,0c4.105-8.172,14.732-24.433,33.098-21.087C309.916,207.63,316.619,239.767,298.898,266.353z"/>
		<path style="fill:#FFFFFF;" d="M308.66,239.62c-1.362-14.149-9.616-25.481-23.651-28.038
			c-18.37-3.347-28.994,11.363-33.101,19.534c-0.821,1.632-3.129,1.632-3.951,0c-4.106-8.171-14.731-22.882-33.101-19.534
			c-14.035,2.557-22.279,13.868-23.651,28.007c-1.611-17.923,6.903-33.444,23.651-36.5c18.37-3.347,28.994,12.922,33.101,21.094
			c0.821,1.632,3.129,1.632,3.951,0c4.106-8.171,14.731-24.441,33.101-21.094C301.768,206.145,310.282,221.687,308.66,239.62z"/>
		<g>
			<path style="fill:none;stroke:#263238;stroke-width:2.5;stroke-linecap:round;stroke-linejoin:round;stroke-miterlimit:10;" d="
				M292.291,264.874c-6.414,9.63-14.883,17.574-22.561,23.556"/>
			<path style="fill:none;stroke:#263238;stroke-width:2.5;stroke-linecap:round;stroke-linejoin:round;stroke-miterlimit:10;" d="
				M263.724,292.853c-6.057,4.215-10.96,6.922-12.896,7.945"/>
		</g>
		<path style="fill:none;stroke:#263238;stroke-width:2.5;stroke-linecap:round;stroke-linejoin:round;stroke-miterlimit:10;" d="
			M298.898,266.353c-15.801,23.722-42.385,38.597-47.931,41.527c-0.649,0.343-1.416,0.343-2.065,0
			c-5.546-2.93-32.132-17.806-47.943-41.527c-17.709-26.587-11.006-58.723,13.899-63.262c18.366-3.346,28.993,12.915,33.098,21.087
			c0.821,1.634,3.136,1.634,3.957,0c4.105-8.172,14.732-24.433,33.098-21.087C309.916,207.63,316.619,239.767,298.898,266.353z"/>
	</g>
</g>
<g id="Character_3">
	<g>
		<g>
			<path style="fill:#263238;" d="M375.705,298.866c11.579-26.467,8.882-36.217,8.882-48.767c0-12.597,2.697-22.347-8.977-48.965
				c1.396,1.292,3.291,6.11,6.987,9.231c0,0,4.841,9.787,18.268,11.136c15.568,1.565,26.75-6.053,26.75-6.053
				c1.914,9.976,0,9.636,0,34.652c0,25.015,1.914,24.676,0,34.652c0,0-11.183-7.619-26.75-6.053
				c-13.427,1.348-18.268,11.136-18.268,11.136s-0.028,0.038-0.085,0.123c0,0-0.009,0-0.009,0.009
				C379.646,292.379,378.449,296.518,375.705,298.866z"/>
			<g>
				<path style="fill:#9ABAE3;" d="M419.058,219.408v61.383c-2.876-0.962-6.374-1.81-10.344-2.15v-57.084
					C412.684,221.218,416.182,220.37,419.058,219.408z"/>
				<path style="fill:#9ABAE3;" d="M401.02,221.51v57.178c-0.047,0-0.104,0-0.151,0.009c-3.979,0.396-7.383,1.537-10.193,2.961
					V218.55c2.81,1.414,6.214,2.555,10.193,2.951C400.916,221.51,400.973,221.51,401.02,221.51z"/>
			</g>
			<path style="fill:#FFFFFF;" d="M427.616,284.751c0,0-8.552-5.827-21.112-6.233v-0.057c10.976,0.49,18.462,3.762,18.462,3.762
				c1.914-9.976-1.15-8.052-1.15-33.068c0-23.931,2.112-23.29,0.613-31.936c2.056-0.999,3.187-1.773,3.187-1.773
				c1.914,9.976,0,9.636,0,34.652C427.616,275.114,429.53,274.775,427.616,284.751z"/>
			<path style="fill:none;stroke:#263238;stroke-width:2.5;stroke-linecap:round;stroke-linejoin:round;stroke-miterlimit:10;" d="
				M375.705,298.866c11.579-26.467,8.882-36.217,8.882-48.767c0-12.597,2.697-22.347-8.977-48.965
				c1.396,1.292,3.291,6.11,6.987,9.231c0,0,4.841,9.787,18.268,11.136c15.568,1.565,26.75-6.053,26.75-6.053
				c1.914,9.976,0,9.636,0,34.652c0,25.015,1.914,24.676,0,34.652c0,0-11.183-7.619-26.75-6.053
				c-13.427,1.348-18.268,11.136-18.268,11.136s-0.028,0.038-0.085,0.123c0,0-0.009,0-0.009,0.009
				C379.646,292.379,378.449,296.518,375.705,298.866z"/>
		</g>
		<g>
			<path style="fill:#FCD8C3;" d="M430.583,237.052c8.554-0.451,15.797,5.024,16.177,12.23c0.38,7.206-6.246,13.413-14.801,13.864
				c-8.554,0.451-15.797-5.024-16.177-12.23C415.402,243.711,422.029,237.504,430.583,237.052z"/>
			<path style="fill:#FFFFFF;" d="M415.782,250.915c-0.104-2.011,0.336-3.949,1.218-5.7c-0.21,0.929-0.293,1.885-0.245,2.867
				c0.364,6.83,7.228,12.02,15.34,11.594c8.113-0.43,14.392-6.315,14.033-13.144c-0.011-0.172-0.021-0.349-0.043-0.518
				c0.383,1.034,0.616,2.13,0.674,3.268c0.378,7.202-6.247,13.411-14.802,13.863C423.404,263.598,416.163,258.124,415.782,250.915z"
				/>
			<path style="fill:none;stroke:#263238;stroke-width:2.5;stroke-linecap:round;stroke-linejoin:round;stroke-miterlimit:10;" d="
				M430.583,237.052c8.554-0.451,15.797,5.024,16.177,12.23c0.38,7.206-6.246,13.413-14.801,13.864
				c-8.554,0.451-15.797-5.024-16.177-12.23C415.402,243.711,422.029,237.504,430.583,237.052z"/>
			<path style="fill:#263238;" d="M418.035,244.035c0,0-7.822,3.116-7.399,8.222c0.311,3.749,6.368,3.903,6.368,3.903
				S414.656,249.859,418.035,244.035z"/>
			<path style="fill:#263238;" d="M443.646,257.784c-2.545-1.284-8.914-7.301-8.13-13.154c0,0-6.611-2.512-7.049-7.343
				c0,0,10.414-2.915,16.245,6.09C449.313,250.483,443.646,257.784,443.646,257.784z"/>
		</g>
		<g>
			<g>
				<path style="fill:#FCD8C3;" d="M322.606,381.872c0,0,1.183,1.231,12.901-2.474"/>
				<path style="fill:#FCD8C3;" d="M328.221,387.945c0,0,1.907-0.532,10.54-3.45"/>
			</g>
			<g>
				<path style="fill:#FCD8C3;" d="M400.866,278.864c-13.431,1.35-21.19,11.136-21.19,11.136s-14.24,34.803-16.126,36.471
					c-1.876,1.678-23.467,28.726-23.467,28.726s-18.204,1.783-17.119,7.28c0.868,4.394,12.646,3.631,12.646,3.631
					s-10.977,6.71-13.542,9.105c-3.988,3.743,0.538,6.657,0.538,6.657s-1.537,2.989,1.065,4.903c1.499,1.103,5.29,1.226,5.29,1.226
					s2.685,8.401,18.157-0.018c19.914-10.836,34.947-23.505,45.73-35.346c5.227-5.74,33.957-58.014,34.768-67.716
					C427.616,284.918,416.437,277.298,400.866,278.864z"/>
				<path style="fill:none;stroke:#263238;stroke-width:2.5;stroke-linecap:round;stroke-linejoin:round;stroke-miterlimit:10;" d="
					M400.866,278.864c-13.431,1.35-21.19,11.136-21.19,11.136s-14.24,34.803-16.126,36.471
					c-1.876,1.678-23.467,28.726-23.467,28.726s-18.204,1.783-17.119,7.28c0.868,4.394,12.646,3.631,12.646,3.631
					s-10.977,6.71-13.542,9.105c-3.988,3.743,0.538,6.657,0.538,6.657s-1.537,2.989,1.065,4.903c1.499,1.103,5.29,1.226,5.29,1.226
					s2.685,8.401,18.157-0.018c19.914-10.836,34.947-23.505,45.73-35.346c5.227-5.74,33.957-58.014,34.768-67.716
					C427.616,284.918,416.437,277.298,400.866,278.864z"/>
				<path style="fill:none;stroke:#263238;stroke-width:2.5;stroke-linecap:round;stroke-linejoin:round;stroke-miterlimit:10;" d="
					M322.606,381.872c0,0,2.503,2.233,13.671-3.595"/>
				<path style="fill:none;stroke:#263238;stroke-width:2.5;stroke-linecap:round;stroke-linejoin:round;stroke-miterlimit:10;" d="
					M328.221,387.945c0,0,5.27,0.693,13.103-4.056"/>
				<g>
					
						<path style="fill:none;stroke:#263238;stroke-width:2.5;stroke-linecap:round;stroke-linejoin:round;stroke-miterlimit:10;" d="
						M331.258,358.173c0,0,0.443,2.707-1.645,4.114c-2.088,1.407-5.888,0.5-5.888,0.5"/>
				</g>
			</g>
		</g>
		<g>
			<g>
				<path style="fill:#FCD8C3;" d="M322.606,118.128c0,0,1.183-1.231,12.901,2.474"/>
				<path style="fill:#FCD8C3;" d="M328.221,112.055c0,0,1.907,0.532,10.54,3.45"/>
			</g>
			<g>
				<path style="fill:#FCD8C3;" d="M400.866,221.136c-13.431-1.351-21.19-11.136-21.19-11.136s-14.24-34.802-16.126-36.471
					c-1.876-1.678-23.467-28.726-23.467-28.726s-18.204-1.783-17.119-7.28c0.868-4.394,12.646-3.631,12.646-3.631
					s-10.977-6.709-13.542-9.105c-3.988-3.743,0.538-6.657,0.538-6.657s-1.537-2.989,1.065-4.903c1.499-1.103,5.29-1.226,5.29-1.226
					s2.685-8.401,18.157,0.018c19.914,10.836,34.947,23.504,45.73,35.346c5.227,5.74,33.957,58.014,34.768,67.716
					C427.616,215.082,416.437,222.702,400.866,221.136z"/>
				<path style="fill:none;stroke:#263238;stroke-width:2.5;stroke-linecap:round;stroke-linejoin:round;stroke-miterlimit:10;" d="
					M400.866,221.136c-13.431-1.351-21.19-11.136-21.19-11.136s-14.24-34.802-16.126-36.471
					c-1.876-1.678-23.467-28.726-23.467-28.726s-18.204-1.783-17.119-7.28c0.868-4.394,12.646-3.631,12.646-3.631
					s-10.977-6.709-13.542-9.105c-3.988-3.743,0.538-6.657,0.538-6.657s-1.537-2.989,1.065-4.903c1.499-1.103,5.29-1.226,5.29-1.226
					s2.685-8.401,18.157,0.018c19.914,10.836,34.947,23.504,45.73,35.346c5.227,5.74,33.957,58.014,34.768,67.716
					C427.616,215.082,416.437,222.702,400.866,221.136z"/>
				<path style="fill:none;stroke:#263238;stroke-width:2.5;stroke-linecap:round;stroke-linejoin:round;stroke-miterlimit:10;" d="
					M322.606,118.128c0,0,2.503-2.233,13.671,3.595"/>
				<path style="fill:none;stroke:#263238;stroke-width:2.5;stroke-linecap:round;stroke-linejoin:round;stroke-miterlimit:10;" d="
					M328.221,112.055c0,0,5.27-0.693,13.103,4.056"/>
				<g>
					
						<path style="fill:none;stroke:#263238;stroke-width:2.5;stroke-linecap:round;stroke-linejoin:round;stroke-miterlimit:10;" d="
						M331.258,141.827c0,0,0.443-2.707-1.645-4.114c-2.088-1.407-5.888-0.5-5.888-0.5"/>
				</g>
			</g>
		</g>
	</g>
</g>
<g id="Character_4_00000139263043518400071950000002689127536250778013_">
	<g>
		<g>
			<g>
				<path style="fill:#B5846B;" d="M150.177,346.555c-2.56-1.891-4.135-3.035-4.135-3.035s-3.009-19.871-8.619-17.875
					c-4.477,1.593-3.266,12.109-3.266,12.109s-6.557-11.779-9.482-14.097c-4.553-3.609-6.907,1.599-6.907,1.599
					s-3.376-1.148-4.979,1.884c-0.926,1.75-0.462,5.749-0.462,5.749s-9.34,0.518,1.418,19.001
					c3.029,5.204,5.733,9.505,10.788,15.751C137.443,361.758,146.899,353.931,150.177,346.555z"/>
				<path style="fill:none;stroke:#263238;stroke-width:2.5;stroke-linecap:round;stroke-linejoin:round;stroke-miterlimit:10;" d="
					M150.177,346.555c-2.56-1.891-4.135-3.035-4.135-3.035s-3.009-19.871-8.619-17.875c-4.477,1.593-3.266,12.109-3.266,12.109
					s-6.557-11.779-9.482-14.097c-4.553-3.609-6.907,1.599-6.907,1.599s-3.376-1.148-4.979,1.884
					c-0.926,1.75-0.462,5.749-0.462,5.749s-9.34,0.518,1.418,19.001c3.029,5.204,5.733,9.505,10.788,15.751
					C137.443,361.758,146.899,353.931,150.177,346.555z"/>
				<path style="fill:none;stroke:#263238;stroke-width:2.5;stroke-linecap:round;stroke-linejoin:round;stroke-miterlimit:10;" d="
					M117.769,325.255c0,0-1.108,1.435,4.613,13.164"/>
				<path style="fill:none;stroke:#263238;stroke-width:2.5;stroke-linecap:round;stroke-linejoin:round;stroke-miterlimit:10;" d="
					M112.267,332.102c0,0-0.064,3.227,4.35,11.838"/>
				<g>
					
						<path style="fill:none;stroke:#263238;stroke-width:2.5;stroke-linecap:round;stroke-linejoin:round;stroke-miterlimit:10;" d="
						M143.242,333.681c0,0-2.774,0.888-4.578-1.085c-1.804-1.973-1.445-6.106-1.445-6.106"/>
				</g>
			</g>
			<g>
				<path style="fill:#B5846B;" d="M349.823,346.555c2.56-1.891,4.135-3.035,4.135-3.035s3.009-19.871,8.619-17.875
					c4.477,1.593,3.266,12.109,3.266,12.109s6.557-11.779,9.482-14.097c4.553-3.609,6.907,1.599,6.907,1.599
					s3.376-1.148,4.979,1.884c0.926,1.75,0.462,5.749,0.462,5.749s9.34,0.518-1.418,19.001c-3.029,5.204-5.733,9.505-10.788,15.751
					C362.557,361.758,353.101,353.931,349.823,346.555z"/>
				<path style="fill:none;stroke:#263238;stroke-width:2.5;stroke-linecap:round;stroke-linejoin:round;stroke-miterlimit:10;" d="
					M349.823,346.555c2.56-1.891,4.135-3.035,4.135-3.035s3.009-19.871,8.619-17.875c4.477,1.593,3.266,12.109,3.266,12.109
					s6.557-11.779,9.482-14.097c4.553-3.609,6.907,1.599,6.907,1.599s3.376-1.148,4.979,1.884c0.926,1.75,0.462,5.749,0.462,5.749
					s9.34,0.518-1.418,19.001c-3.029,5.204-5.733,9.505-10.788,15.751C362.557,361.758,353.101,353.931,349.823,346.555z"/>
				<path style="fill:none;stroke:#263238;stroke-width:2.5;stroke-linecap:round;stroke-linejoin:round;stroke-miterlimit:10;" d="
					M382.231,325.255c0,0,1.108,1.435-4.613,13.164"/>
				<path style="fill:none;stroke:#263238;stroke-width:2.5;stroke-linecap:round;stroke-linejoin:round;stroke-miterlimit:10;" d="
					M387.733,332.102c0,0,0.064,3.227-4.35,11.838"/>
				<g>
					
						<path style="fill:none;stroke:#263238;stroke-width:2.5;stroke-linecap:round;stroke-linejoin:round;stroke-miterlimit:10;" d="
						M356.758,333.681c0,0,2.774,0.888,4.578-1.085c1.804-1.973,1.445-6.106,1.445-6.106"/>
				</g>
			</g>
		</g>
		<g>
			<g>
				<path style="fill:#263238;" d="M119.718,364.693c21.178-5.336,29.776-21.227,29.776-21.227s29.143,22.794,31.986,24.674
					c3.145,2.055,28.491,9.612,33.33,11.043c11.12,3.272,24.82,5.638,35.19,5.638s24.07-2.366,35.19-5.638
					c4.839-1.431,30.185-8.988,33.33-11.043c2.843-1.879,31.986-24.674,31.986-24.674s8.598,15.891,29.776,21.227
					c0,0-1.451,3.759-3.077,6.154c-3.992,5.949-32.084,30.925-36.456,33.953c-4.051,2.804-38.052,22.62-50.594,25.337
					c-11.938,2.58-18.296,0.789-40.156,0.555c-21.86,0.234-28.218,2.025-40.156-0.555c-12.541-2.717-46.543-22.533-50.594-25.337
					c-4.372-3.028-32.463-28.004-36.456-33.953C121.168,368.452,119.718,364.693,119.718,364.693z"/>
				<path style="fill:#FFFFFF;" d="M234.531,431.622l6.016-46.448c3.149,0.207,6.157,0.217,9.344,0.217
					c3.187,0,6.195-0.009,9.344-0.217l6.016,46.448c-3.753-0.17-8.647-0.311-15.36-0.311S238.284,431.453,234.531,431.622z"/>
				
					<polyline style="fill:none;stroke:#9ABAE3;stroke-width:2.5;stroke-linecap:round;stroke-linejoin:round;stroke-miterlimit:10;" points="
					279.455,430.692 271.72,407.6 264.403,407.018 269.943,402.328 263.358,384.944 				"/>
				
					<polyline style="fill:none;stroke:#9ABAE3;stroke-width:2.5;stroke-linecap:round;stroke-linejoin:round;stroke-miterlimit:10;" points="
					220.314,430.692 228.049,407.6 235.366,407.018 229.826,402.328 236.411,384.944 				"/>
				<path style="fill:#FFFFFF;" d="M157.156,402.85c4.09,2.736,38.374,22.143,50.954,24.655c11.986,2.386,18.306,0.487,40.166-0.117
					c21.86-0.127,28.247,1.558,40.136-1.217c12.493-2.921,46.212-23.136,50.214-26.009c4.323-3.096,31.996-28.539,35.891-34.557
					c0.448-0.682,0.886-1.48,1.276-2.269c1.431,0.506,2.921,0.964,4.489,1.353c0,0-1.451,3.759-3.077,6.154
					c-3.992,5.949-32.084,30.925-36.456,33.953c-4.051,2.804-38.053,22.62-50.594,25.337c-11.938,2.58-18.296,0.789-40.156,0.555
					c-21.86,0.234-28.218,2.025-40.156-0.555c-12.541-2.717-46.543-22.533-50.594-25.337c-1.169-0.799-4.002-3.155-7.614-6.29
					C154.245,400.66,156.231,402.227,157.156,402.85z"/>
				<g>
					<g>
						
							<path style="fill:none;stroke:#9ABAE3;stroke-width:2.5;stroke-linecap:round;stroke-linejoin:round;stroke-miterlimit:10;" d="
							M200.635,374.885c1.962,2.115,11.022,14.03,11.022,14.03"/>
						
							<line style="fill:none;stroke:#9ABAE3;stroke-width:2.5;stroke-linecap:round;stroke-linejoin:round;stroke-miterlimit:10;" x1="205.721" y1="381.9" x2="208.626" y2="391.632"/>
					</g>
					<g>
						
							<path style="fill:none;stroke:#9ABAE3;stroke-width:2.5;stroke-linecap:round;stroke-linejoin:round;stroke-miterlimit:10;" d="
							M299.365,374.885c-1.962,2.115-11.022,14.03-11.022,14.03"/>
						
							<line style="fill:none;stroke:#9ABAE3;stroke-width:2.5;stroke-linecap:round;stroke-linejoin:round;stroke-miterlimit:10;" x1="294.279" y1="381.9" x2="291.374" y2="391.632"/>
					</g>
				</g>
				<path style="fill:none;stroke:#263238;stroke-width:2.5;stroke-linecap:round;stroke-linejoin:round;stroke-miterlimit:10;" d="
					M119.718,364.693c21.178-5.336,29.776-21.227,29.776-21.227s29.143,22.794,31.986,24.674c3.145,2.055,28.491,9.612,33.33,11.043
					c11.12,3.272,24.82,5.638,35.19,5.638s24.07-2.366,35.19-5.638c4.839-1.431,30.185-8.988,33.33-11.043
					c2.843-1.879,31.986-24.674,31.986-24.674s8.598,15.891,29.776,21.227c0,0-1.451,3.759-3.077,6.154
					c-3.992,5.949-32.084,30.925-36.456,33.953c-4.051,2.804-38.052,22.62-50.594,25.337c-11.938,2.58-18.296,0.789-40.156,0.555
					c-21.86,0.234-28.218,2.025-40.156-0.555c-12.541-2.717-46.543-22.533-50.594-25.337c-4.372-3.028-32.463-28.004-36.456-33.953
					C121.168,368.452,119.718,364.693,119.718,364.693z"/>
			</g>
		</g>
		<g>
			<path style="fill:#B5846B;" d="M262.85,434.276c0.451,8.555-5.024,15.797-12.23,16.177c-7.206,0.38-13.413-6.246-13.864-14.801
				c-0.451-8.555,5.024-15.797,12.23-16.177C256.191,419.096,262.399,425.722,262.85,434.276z"/>
			<path style="fill:#FFFFFF;" d="M248.987,419.475c2.011-0.104,3.949,0.336,5.7,1.218c-0.929-0.209-1.885-0.293-2.867-0.245
				c-6.83,0.364-12.02,7.228-11.594,15.34c0.43,8.113,6.315,14.392,13.144,14.033c0.172-0.011,0.349-0.021,0.519-0.042
				c-1.034,0.383-2.131,0.616-3.268,0.674c-7.202,0.378-13.411-6.247-13.863-14.802
				C236.304,427.098,241.778,419.857,248.987,419.475z"/>
			<path style="fill:none;stroke:#263238;stroke-width:2.5;stroke-linecap:round;stroke-linejoin:round;stroke-miterlimit:10;" d="
				M262.85,434.276c0.451,8.555-5.024,15.797-12.23,16.177c-7.206,0.38-13.413-6.246-13.864-14.801
				c-0.451-8.555,5.024-15.797,12.23-16.177C256.191,419.096,262.399,425.722,262.85,434.276z"/>
			<path style="fill:#263238;" d="M255.867,421.729c0,0-3.116-7.822-8.222-7.399c-3.749,0.311-3.903,6.369-3.903,6.369
				S250.043,418.349,255.867,421.729z"/>
			<path style="fill:#263238;" d="M239.706,449.152c0-2.961,2.404-5.356,5.356-5.356c1.245,0,2.386,0.424,3.291,1.132
				c1.32-4.29,8.1-9.231,14.719-9.193c0,0,2.046,8.637-7.006,13.861c-2.206,1.273-4.253,1.735-6.091,1.688
				c-0.82,1.895-2.706,3.225-4.913,3.225C242.111,454.508,239.706,452.113,239.706,449.152z"/>
		</g>
	</g>
</g>
<g id="Character_2">
	<g>
		<g>
			<g>
				<path style="fill:#915A3F;" d="M349.823,156.065c2.56,1.891,4.135,3.036,4.135,3.036s3.009,19.87,8.619,17.875
					c4.477-1.593,3.266-12.109,3.266-12.109s6.557,11.779,9.482,14.097c4.553,3.609,6.907-1.599,6.907-1.599
					s3.376,1.148,4.979-1.884c0.926-1.75,0.462-5.749,0.462-5.749s9.34-0.518-1.418-19.001c-3.029-5.204-5.733-9.505-10.788-15.751
					C362.557,140.861,353.101,148.688,349.823,156.065z"/>
				<path style="fill:none;stroke:#263238;stroke-width:2.5;stroke-linecap:round;stroke-linejoin:round;stroke-miterlimit:10;" d="
					M349.823,156.065c2.56,1.891,4.135,3.036,4.135,3.036s3.009,19.87,8.619,17.875c4.477-1.593,3.266-12.109,3.266-12.109
					s6.557,11.779,9.482,14.097c4.553,3.609,6.907-1.599,6.907-1.599s3.376,1.148,4.979-1.884c0.926-1.75,0.462-5.749,0.462-5.749
					s9.34-0.518-1.418-19.001c-3.029-5.204-5.733-9.505-10.788-15.751C362.557,140.861,353.101,148.688,349.823,156.065z"/>
				<path style="fill:none;stroke:#263238;stroke-width:2.5;stroke-linecap:round;stroke-linejoin:round;stroke-miterlimit:10;" d="
					M382.231,177.364c0,0,1.108-1.435-4.613-13.164"/>
				<path style="fill:none;stroke:#263238;stroke-width:2.5;stroke-linecap:round;stroke-linejoin:round;stroke-miterlimit:10;" d="
					M387.722,170.269c0,0,0.075-2.978-4.339-11.589"/>
				<g>
					
						<path style="fill:none;stroke:#263238;stroke-width:2.5;stroke-linecap:round;stroke-linejoin:round;stroke-miterlimit:10;" d="
						M356.758,168.939c0,0,2.774-0.889,4.578,1.085c1.804,1.973,1.445,6.106,1.445,6.106"/>
				</g>
			</g>
			<g>
				<path style="fill:#915A3F;" d="M150.177,156.065c-2.56,1.891-4.135,3.036-4.135,3.036s-3.009,19.87-8.619,17.875
					c-4.477-1.593-3.266-12.109-3.266-12.109s-6.557,11.779-9.482,14.097c-4.553,3.609-6.907-1.599-6.907-1.599
					s-3.376,1.148-4.979-1.884c-0.926-1.75-0.462-5.749-0.462-5.749s-9.34-0.518,1.418-19.001
					c3.029-5.204,5.733-9.505,10.788-15.751C137.443,140.861,146.899,148.688,150.177,156.065z"/>
				<path style="fill:none;stroke:#263238;stroke-width:2.5;stroke-linecap:round;stroke-linejoin:round;stroke-miterlimit:10;" d="
					M150.177,156.065c-2.56,1.891-4.135,3.036-4.135,3.036s-3.009,19.87-8.619,17.875c-4.477-1.593-3.266-12.109-3.266-12.109
					s-6.557,11.779-9.482,14.097c-4.553,3.609-6.907-1.599-6.907-1.599s-3.376,1.148-4.979-1.884
					c-0.926-1.75-0.462-5.749-0.462-5.749s-9.34-0.518,1.418-19.001c3.029-5.204,5.733-9.505,10.788-15.751
					C137.443,140.861,146.899,148.688,150.177,156.065z"/>
				<path style="fill:none;stroke:#263238;stroke-width:2.5;stroke-linecap:round;stroke-linejoin:round;stroke-miterlimit:10;" d="
					M117.769,177.364c0,0-1.108-1.435,4.613-13.164"/>
				<path style="fill:none;stroke:#263238;stroke-width:2.5;stroke-linecap:round;stroke-linejoin:round;stroke-miterlimit:10;" d="
					M112.267,170.518c0,0-0.064-3.227,4.35-11.838"/>
				<g>
					
						<path style="fill:none;stroke:#263238;stroke-width:2.5;stroke-linecap:round;stroke-linejoin:round;stroke-miterlimit:10;" d="
						M143.242,168.939c0,0-2.774-0.889-4.578,1.085c-1.804,1.973-1.445,6.106-1.445,6.106"/>
				</g>
			</g>
		</g>
		<g>
			<g>
				<path style="fill:#EC644E;" d="M380.282,137.926c-21.178,5.336-29.776,21.227-29.776,21.227s-29.143-22.794-31.986-24.674
					c-3.145-2.055-28.491-9.612-33.33-11.043c-11.12-3.272-24.82-5.638-35.19-5.638s-24.07,2.366-35.19,5.638
					c-4.839,1.431-30.185,8.988-33.33,11.043c-2.843,1.879-31.986,24.674-31.986,24.674s-8.598-15.891-29.776-21.227
					c0,0,1.451-3.758,3.077-6.154c3.992-5.949,32.084-30.925,36.456-33.953c4.051-2.804,38.053-22.62,50.594-25.337
					c11.938-2.58,18.296-0.789,40.156-0.555c21.86-0.234,28.218-2.025,40.156,0.555c12.541,2.717,46.543,22.533,50.594,25.337
					c4.372,3.028,32.464,28.004,36.456,33.953C378.831,134.168,380.282,137.926,380.282,137.926z"/>
				<path style="fill:#FFFFFF;" d="M380.282,137.931c-0.857,0.214-1.685,0.448-2.502,0.701
					c-7.546-8.802-30.701-30.224-34.674-33.096c-4.08-2.96-38.296-23.711-51.081-26.758c-12.171-2.911-18.724-1.217-41.11-1.451
					c-22.386-0.72-28.861-2.697-41.139-0.311c-12.902,2.512-47.858,22.201-52.064,24.986c-4.061,2.688-27.819,22.843-35.91,31.422
					c0.321-0.574,0.652-1.139,0.993-1.645c3.992-5.949,32.084-30.925,36.456-33.953c4.051-2.804,38.053-22.62,50.594-25.337
					c11.938-2.58,18.296-0.789,40.156-0.555c21.86-0.234,28.218-2.025,40.156,0.555c12.541,2.717,46.543,22.533,50.594,25.337
					c4.372,3.028,32.464,28.004,36.456,33.953C378.831,134.172,380.282,137.931,380.282,137.931z"/>
				<path style="fill:none;stroke:#263238;stroke-width:2.5;stroke-linecap:round;stroke-linejoin:round;stroke-miterlimit:10;" d="
					M380.282,137.926c-21.178,5.336-29.776,21.227-29.776,21.227s-29.143-22.794-31.986-24.674
					c-3.145-2.055-28.491-9.612-33.33-11.043c-11.12-3.272-24.82-5.638-35.19-5.638s-24.07,2.366-35.19,5.638
					c-4.839,1.431-30.185,8.988-33.33,11.043c-2.843,1.879-31.986,24.674-31.986,24.674s-8.598-15.891-29.776-21.227
					c0,0,1.451-3.758,3.077-6.154c3.992-5.949,32.084-30.925,36.456-33.953c4.051-2.804,38.053-22.62,50.594-25.337
					c11.938-2.58,18.296-0.789,40.156-0.555c21.86-0.234,28.218-2.025,40.156,0.555c12.541,2.717,46.543,22.533,50.594,25.337
					c4.372,3.028,32.464,28.004,36.456,33.953C378.831,134.168,380.282,137.926,380.282,137.926z"/>
			</g>
			<g>
				<g>
					
						<path style="fill:none;stroke:#263238;stroke-width:2.5;stroke-linecap:round;stroke-linejoin:round;stroke-miterlimit:10;" d="
						M299.365,127.735c-1.962-2.115-11.022-14.03-11.022-14.03"/>
					
						<line style="fill:none;stroke:#263238;stroke-width:2.5;stroke-linecap:round;stroke-linejoin:round;stroke-miterlimit:10;" x1="294.279" y1="120.72" x2="291.374" y2="110.988"/>
				</g>
				<g>
					
						<path style="fill:none;stroke:#263238;stroke-width:2.5;stroke-linecap:round;stroke-linejoin:round;stroke-miterlimit:10;" d="
						M200.635,127.735c1.962-2.115,11.022-14.03,11.022-14.03"/>
					
						<line style="fill:none;stroke:#263238;stroke-width:2.5;stroke-linecap:round;stroke-linejoin:round;stroke-miterlimit:10;" x1="205.721" y1="120.72" x2="208.626" y2="110.988"/>
				</g>
			</g>
		</g>
		<g>
			<path style="fill:#915A3F;" d="M236.8,68.993c-0.451-8.554,5.024-15.797,12.23-16.177c7.206-0.38,13.413,6.246,13.864,14.801
				c0.452,8.554-5.024,15.797-12.229,16.177C243.459,84.174,237.252,77.547,236.8,68.993z"/>
			<path style="fill:#FFFFFF;" d="M250.664,83.794c-2.011,0.104-3.949-0.336-5.7-1.218c0.929,0.21,1.885,0.293,2.867,0.245
				c6.83-0.364,12.02-7.229,11.595-15.34c-0.43-8.113-6.315-14.392-13.144-14.033c-0.172,0.011-0.349,0.021-0.519,0.042
				c1.034-0.383,2.131-0.616,3.268-0.674c7.203-0.378,13.411,6.248,13.863,14.802C263.346,76.171,257.872,83.412,250.664,83.794z"/>
			<path style="fill:none;stroke:#263238;stroke-width:2.5;stroke-linecap:round;stroke-linejoin:round;stroke-miterlimit:10;" d="
				M236.8,68.993c-0.451-8.554,5.024-15.797,12.23-16.177c7.206-0.38,13.413,6.246,13.864,14.801
				c0.452,8.554-5.024,15.797-12.229,16.177C243.459,84.174,237.252,77.547,236.8,68.993z"/>
			<path style="fill:#263238;" d="M243.783,81.54c0,0,3.116,7.822,8.222,7.399c3.749-0.311,3.903-6.368,3.903-6.368
				S249.607,84.92,243.783,81.54z"/>
			<path style="fill:#263238;" d="M263.847,63.609c0.595,1.198,0.825,2.602,0.545,4.071c-0.485,2.544-2.524,4.602-5.068,5.09
				c-4.084,0.784-7.688-2.319-7.722-6.276c-0.012-1.427,0.44-2.752,1.218-3.819c0.453-0.622,0.465-1.453,0.061-2.108
				c-0.529-0.858-0.936-1.93-1.025-3.174c-0.066-0.912-0.712-1.691-1.618-1.816c-0.817-0.113-2.522-0.665-3.345-1.676
				c-0.573-0.704-5.051,1.116-6.959,4.382c-0.893-0.131-3.193-1.855-3.472-4.637c-0.633-6.304,5.322-7.469,7.653-7.638
				c0.653-0.048,1.218-0.425,1.548-0.991c1.685-2.894,5.384-4.521,9.162-2.856c3.046,1.342,3.785,4.222,3.906,6.072
				c0.056,0.861,0.715,1.554,1.562,1.717c3.172,0.613,5.587,3.524,5.617,6.868c0.016,1.826-0.663,3.494-1.795,4.748
				C263.614,62.12,263.515,62.94,263.847,63.609z"/>
			<path style="fill:#263238;" d="M234.46,47.674c1.007,1.056,2.354-0.326,4.268-1.33c1.594-0.837,3.459-0.977,3.45-2.415
				c-0.01-1.491-1.517-2.292-4.318-1.279C235.228,43.601,233.236,46.39,234.46,47.674z"/>
		</g>
		<path style="fill:none;stroke:#263238;stroke-width:2.5;stroke-linecap:round;stroke-linejoin:round;stroke-miterlimit:10;" d="
			M239.657,83.809c0.836,4.132,5.998,10.946,12.96,10.194c7.734-0.836,7.734-10.194,7.734-10.194"/>
	</g>
</g>
<g id="Character_1_00000161592063857816644210000017882899637548610477_">
	<g>
		<path style="fill:#FFFFFF;" d="M124.369,201.134c-11.579,26.467-8.882,36.217-8.882,48.767c0,12.597-2.697,22.347,8.977,48.965
			c-1.396-1.292-3.291-6.11-6.987-9.231c0,0-4.841-9.787-18.268-11.136c-15.568-1.565-26.75,6.053-26.75,6.053
			c-1.914-9.976,0-9.637,0-34.652c0-25.015-1.914-24.676,0-34.652c0,0,11.183,7.619,26.75,6.053
			c13.427-1.348,18.268-11.136,18.268-11.136s0.028-0.038,0.085-0.123c0,0,0.009,0,0.009-0.009
			C120.427,207.621,121.625,203.482,124.369,201.134z"/>
		<path style="fill:none;stroke:#263238;stroke-width:2.5;stroke-linecap:round;stroke-linejoin:round;stroke-miterlimit:10;" d="
			M124.369,201.134c-11.579,26.467-8.882,36.217-8.882,48.767c0,12.597-2.697,22.347,8.977,48.965
			c-1.396-1.292-3.291-6.11-6.987-9.231c0,0-4.841-9.787-18.268-11.136c-15.568-1.565-26.75,6.053-26.75,6.053
			c-1.914-9.976,0-9.637,0-34.652c0-25.015-1.914-24.676,0-34.652c0,0,11.183,7.619,26.75,6.053
			c13.427-1.348,18.268-11.136,18.268-11.136s0.028-0.038,0.085-0.123c0,0,0.009,0,0.009-0.009
			C120.427,207.621,121.625,203.482,124.369,201.134z"/>
		<g>
			<path style="fill:#F0BA92;" d="M69.491,262.948c-8.554,0.451-15.797-5.024-16.177-12.23s6.246-13.413,14.801-13.864
				s15.797,5.024,16.177,12.23C84.672,256.289,78.045,262.496,69.491,262.948z"/>
			<path style="fill:#FFFFFF;" d="M84.292,249.085c0.104,2.011-0.336,3.949-1.218,5.7c0.21-0.929,0.293-1.885,0.245-2.867
				c-0.364-6.83-7.229-12.02-15.34-11.594c-8.113,0.43-14.392,6.315-14.033,13.144c0.011,0.172,0.021,0.349,0.042,0.518
				c-0.383-1.034-0.616-2.13-0.674-3.268c-0.378-7.202,6.248-13.411,14.802-13.863S83.91,241.876,84.292,249.085z"/>
			<path style="fill:none;stroke:#263238;stroke-width:2.5;stroke-linecap:round;stroke-linejoin:round;stroke-miterlimit:10;" d="
				M69.491,262.948c-8.554,0.451-15.797-5.024-16.177-12.23s6.246-13.413,14.801-13.864s15.797,5.024,16.177,12.23
				C84.672,256.289,78.045,262.496,69.491,262.948z"/>
			<path style="fill:#263238;" d="M82.039,255.965c0,0,7.822-3.116,7.399-8.222c-0.311-3.749-6.368-3.903-6.368-3.903
				S85.418,250.141,82.039,255.965z"/>
			<path style="fill:#263238;" d="M56.428,242.216c2.545,1.284,8.914,7.301,8.13,13.154c0,0,6.611,2.512,7.049,7.343
				c0,0-10.414,2.916-16.245-6.09C50.761,249.517,56.428,242.216,56.428,242.216z"/>
			<path style="fill:#263238;" d="M55.996,264.948c2.011,0.866,3.425-2.184,1.372-3.067C55.193,260.944,53.794,264,55.996,264.948z"
				/>
			<path style="fill:#263238;" d="M54.107,261.736c1.351-1.299-0.461-2.914-1.574-5.226c-0.927-1.926-1.175-4.243-2.61-4.121
				c-1.488,0.126-2.39,1.707-1.028,5.488C50.042,261.065,52.698,263.091,54.107,261.736z"/>
		</g>
		<g>
			<g>
				<path style="fill:#FCD8C3;" d="M177.468,118.128c0,0-1.183-1.231-12.901,2.474"/>
				<path style="fill:#FCD8C3;" d="M171.853,112.055c0,0-1.907,0.532-10.54,3.45"/>
			</g>
			<g>
				<path style="fill:#F0BA92;" d="M99.208,221.136c13.431-1.351,21.19-11.136,21.19-11.136s14.24-34.802,16.126-36.471
					c1.876-1.678,23.467-28.726,23.467-28.726s18.204-1.783,17.119-7.28c-0.868-4.394-12.646-3.631-12.646-3.631
					s10.977-6.709,13.542-9.105c3.988-3.743-0.538-6.657-0.538-6.657s1.537-2.989-1.065-4.903c-1.499-1.103-5.29-1.226-5.29-1.226
					s-2.685-8.401-18.157,0.018c-19.914,10.836-34.947,23.504-45.73,35.346c-5.226,5.74-33.957,58.014-34.768,67.716
					C72.457,215.082,83.637,222.702,99.208,221.136z"/>
				<path style="fill:none;stroke:#263238;stroke-width:2.5;stroke-linecap:round;stroke-linejoin:round;stroke-miterlimit:10;" d="
					M99.208,221.136c13.431-1.351,21.19-11.136,21.19-11.136s14.24-34.802,16.126-36.471c1.876-1.678,23.467-28.726,23.467-28.726
					s18.204-1.783,17.119-7.28c-0.868-4.394-12.646-3.631-12.646-3.631s10.977-6.709,13.542-9.105
					c3.988-3.743-0.538-6.657-0.538-6.657s1.537-2.989-1.065-4.903c-1.499-1.103-5.29-1.226-5.29-1.226s-2.685-8.401-18.157,0.018
					c-19.914,10.836-34.947,23.504-45.73,35.346c-5.226,5.74-33.957,58.014-34.768,67.716
					C72.457,215.082,83.637,222.702,99.208,221.136z"/>
				<path style="fill:none;stroke:#263238;stroke-width:2.5;stroke-linecap:round;stroke-linejoin:round;stroke-miterlimit:10;" d="
					M177.468,118.128c0,0-2.503-2.233-13.671,3.595"/>
				<path style="fill:none;stroke:#263238;stroke-width:2.5;stroke-linecap:round;stroke-linejoin:round;stroke-miterlimit:10;" d="
					M171.853,112.055c0,0-5.27-0.693-13.103,4.056"/>
				<g>
					
						<path style="fill:none;stroke:#263238;stroke-width:2.5;stroke-linecap:round;stroke-linejoin:round;stroke-miterlimit:10;" d="
						M168.816,141.827c0,0-0.443-2.707,1.645-4.114c2.088-1.407,5.887-0.5,5.887-0.5"/>
				</g>
			</g>
		</g>
		<g>
			<g>
				<path style="fill:#FCD8C3;" d="M177.468,381.872c0,0-1.183,1.231-12.901-2.474"/>
				<path style="fill:#FCD8C3;" d="M171.853,387.945c0,0-1.907-0.532-10.54-3.45"/>
			</g>
			<g>
				<path style="fill:#F0BA92;" d="M99.208,278.864c13.431,1.35,21.19,11.136,21.19,11.136s14.24,34.803,16.126,36.471
					c1.876,1.678,23.467,28.726,23.467,28.726s18.204,1.783,17.119,7.28c-0.868,4.394-12.646,3.631-12.646,3.631
					s10.977,6.71,13.542,9.105c3.988,3.743-0.538,6.657-0.538,6.657s1.537,2.989-1.065,4.903c-1.499,1.103-5.29,1.226-5.29,1.226
					s-2.685,8.401-18.157-0.018c-19.914-10.836-34.947-23.505-45.73-35.346c-5.226-5.74-33.957-58.014-34.768-67.716
					C72.457,284.918,83.637,277.298,99.208,278.864z"/>
				<path style="fill:none;stroke:#263238;stroke-width:2.5;stroke-linecap:round;stroke-linejoin:round;stroke-miterlimit:10;" d="
					M99.208,278.864c13.431,1.35,21.19,11.136,21.19,11.136s14.24,34.803,16.126,36.471c1.876,1.678,23.467,28.726,23.467,28.726
					s18.204,1.783,17.119,7.28c-0.868,4.394-12.646,3.631-12.646,3.631s10.977,6.71,13.542,9.105
					c3.988,3.743-0.538,6.657-0.538,6.657s1.537,2.989-1.065,4.903c-1.499,1.103-5.29,1.226-5.29,1.226s-2.685,8.401-18.157-0.018
					c-19.914-10.836-34.947-23.505-45.73-35.346c-5.226-5.74-33.957-58.014-34.768-67.716
					C72.457,284.918,83.637,277.298,99.208,278.864z"/>
				<path style="fill:none;stroke:#263238;stroke-width:2.5;stroke-linecap:round;stroke-linejoin:round;stroke-miterlimit:10;" d="
					M177.468,381.872c0,0-2.503,2.233-13.671-3.595"/>
				<path style="fill:none;stroke:#263238;stroke-width:2.5;stroke-linecap:round;stroke-linejoin:round;stroke-miterlimit:10;" d="
					M171.853,387.945c0,0-5.27,0.693-13.103-4.056"/>
				<g>
					
						<path style="fill:none;stroke:#263238;stroke-width:2.5;stroke-linecap:round;stroke-linejoin:round;stroke-miterlimit:10;" d="
						M168.816,358.173c0,0-0.443,2.707,1.645,4.114c2.088,1.407,5.887,0.5,5.887,0.5"/>
				</g>
			</g>
		</g>
		<g>
			<g>
				<path style="fill:#EC644E;" d="M72.457,284.927c0.618,5.739,0,16.074,6.672,26.254c4.245,6.478,12.545,23.712,13.599,24.966
					c1.054,1.254,4.749-1.005,4.749-1.005s11.029-12.206,16.987-17.299c5.958-5.093,16.094-11.777,15.575-12.214
					c-0.519-0.436-3.629-4.529-3.629-4.529s-8.441-23.797-30.959-22.685C73.841,279.483,72.457,284.927,72.457,284.927z"/>
			</g>
		</g>
		<g>
			<g>
				<path style="fill:none;stroke:#263238;stroke-width:2.5;stroke-linecap:round;stroke-linejoin:round;stroke-miterlimit:10;" d="
					M72.457,284.927c0.618,5.739,0,16.074,6.672,26.254c4.245,6.478,12.545,23.712,13.599,24.966
					c1.054,1.254,4.749-1.005,4.749-1.005s11.029-12.206,16.987-17.299c5.958-5.093,16.094-11.777,15.575-12.214
					c-0.519-0.436-3.629-4.529-3.629-4.529s-8.441-23.797-30.959-22.685C73.841,279.483,72.457,284.927,72.457,284.927z"/>
			</g>
		</g>
		<g>
			<g>
				<path style="fill:#EC644E;" d="M72.457,215.073c0.618-5.739,0-16.074,6.672-26.254c4.245-6.478,12.545-23.712,13.599-24.966
					c1.054-1.254,4.749,1.005,4.749,1.005s11.029,12.206,16.987,17.299c5.958,5.093,16.094,11.777,15.575,12.214
					c-0.519,0.436-3.629,4.529-3.629,4.529s-8.441,23.797-30.959,22.685C73.841,220.517,72.457,215.073,72.457,215.073z"/>
			</g>
			<g>
				<path style="fill:none;stroke:#263238;stroke-width:2.5;stroke-linecap:round;stroke-linejoin:round;stroke-miterlimit:10;" d="
					M72.457,215.073c0.618-5.739,0-16.074,6.672-26.254c4.245-6.478,12.545-23.712,13.599-24.966
					c1.054-1.254,4.749,1.005,4.749,1.005s11.029,12.206,16.987,17.299c5.958,5.093,16.094,11.777,15.575,12.214
					c-0.519,0.436-3.629,4.529-3.629,4.529s-8.441,23.797-30.959,22.685C73.841,220.517,72.457,215.073,72.457,215.073z"/>
			</g>
		</g>
		<path style="fill:none;stroke:#263238;stroke-width:2.5;stroke-linecap:round;stroke-linejoin:round;stroke-miterlimit:10;" d="
			M85.197,239.427c4.912-0.009,9.087,3.283,9.742,7.734c0.523,3.554-1.345,8.257-8.302,11.602"/>
	</g>
</g>
</svg>
