<?xml version="1.0" encoding="utf-8"?>
<!-- Generator: Adobe Illustrator 27.5.0, SVG Export Plug-In . SVG Version: 6.00 Build 0)  -->
<svg version="1.1" xmlns="http://www.w3.org/2000/svg" xmlns:xlink="http://www.w3.org/1999/xlink" x="0px" y="0px"
	 viewBox="0 0 500 500" style="enable-background:new 0 0 500 500;" xml:space="preserve">
<g id="BACKGROUND">
	<rect style="fill:#FFFFFF;" width="500" height="500"/>
	<g style="opacity:0.1;">
		<defs>
			<rect id="SVGID_1_" style="opacity:0.1;" width="500" height="500"/>
		</defs>
		<clipPath id="SVGID_00000088115206075787837250000006717845761080463259_">
			<use xlink:href="#SVGID_1_"  style="overflow:visible;"/>
		</clipPath>
		<g style="clip-path:url(#SVGID_00000088115206075787837250000006717845761080463259_);">
			<g>
				<g>
					<g>
						
							<linearGradient id="SVGID_00000078738921173334656190000013680552560853351572_" gradientUnits="userSpaceOnUse" x1="101.0036" y1="440.6454" x2="89.3474" y2="491.2439" gradientTransform="matrix(0.9995 -0.0309 0.0309 0.9995 -7.1764 7.8878)">
							<stop  offset="0" style="stop-color:#F5CB00"/>
							<stop  offset="1" style="stop-color:#DA344B"/>
						</linearGradient>
						<path style="fill:url(#SVGID_00000078738921173334656190000013680552560853351572_);" d="M103.767,506.425
							c0,0,19.111-0.291,35.978-38.948c5.001-11.461,6.498-22.212-0.72-23.29c-14.52-2.168-16.482,52.998-63.305,40.883
							c-33.038,3.361-3.33,13.162-0.979,13.789c2.351,0.627,17.964,12.791,17.964,12.791L103.767,506.425z"/>
						
							<linearGradient id="SVGID_00000111893813276843852850000001516991308257472425_" gradientUnits="userSpaceOnUse" x1="50.5512" y1="409.522" x2="39.6293" y2="456.9332" gradientTransform="matrix(0.9958 -0.0911 0.0911 0.9958 -20.6229 24.214)">
							<stop  offset="0" style="stop-color:#F5CB00"/>
							<stop  offset="1" style="stop-color:#DA344B"/>
						</linearGradient>
						<path style="fill:url(#SVGID_00000111893813276843852850000001516991308257472425_);" d="M67.796,484.52
							c0,0,19.059-1.443,33.562-41.048c4.3-11.742,3.718-17.972-3.552-18.613c-14.625-1.288-11.825,49.304-59.294,40.037
							c-32.775,5.348-2.529,13.339-0.145,13.823c2.384,0.484,18.703,11.684,18.703,11.684L67.796,484.52z"/>
						
							<linearGradient id="SVGID_00000124129278419118442340000000550642079879752090_" gradientUnits="userSpaceOnUse" x1="155.9327" y1="481.6826" x2="145.6803" y2="526.1873" gradientTransform="matrix(0.9922 0.1243 -0.1243 0.9922 31.9948 -30.1837)">
							<stop  offset="0" style="stop-color:#F5CB00"/>
							<stop  offset="1" style="stop-color:#DA344B"/>
						</linearGradient>
						<path style="fill:url(#SVGID_00000124129278419118442340000000550642079879752090_);" d="M124.745,507.97
							c0,0,12.732,4.313,27.477-14.035c7.833-9.747,9.861-20.937,2.897-23.12c-14.009-4.392-27.85,33.597-61.009,31.799
							c-33.159-1.798-13.192,11.271-10.967,12.255s27.542,3.216,27.542,3.216L124.745,507.97z"/>
						
							<linearGradient id="SVGID_00000146484063775183546960000010122691442075073713_" gradientUnits="userSpaceOnUse" x1="22.0766" y1="483.5728" x2="154.3143" y2="537.3052">
							<stop  offset="0" style="stop-color:#DA344B"/>
							<stop  offset="1" style="stop-color:#F5CB00"/>
						</linearGradient>
						<path style="fill:url(#SVGID_00000146484063775183546960000010122691442075073713_);" d="M76.726,485.319
							c0,0,4.203,13.422,27.146,20.345s41.118-13.174,54.4-9.155c13.282,4.019-1.049,26.447-31.34,34.136
							c-30.291,7.689-70.136-4.194-94.835-23.534c-21.574-16.893-47.414-19.598-42.703,3.053
							c-14.107,4.034-18.811-18.897-18.811-19.946c0-1.049,0-15.379,0-15.379l20.272-10.835l29.01,4.544l36.699,12.131
							L76.726,485.319z"/>
					</g>
					
						<linearGradient id="SVGID_00000121247225317562603650000005682417977096094382_" gradientUnits="userSpaceOnUse" x1="-59.8133" y1="461.5819" x2="109.197" y2="461.5819">
						<stop  offset="0" style="stop-color:#DA344B"/>
						<stop  offset="1" style="stop-color:#F5CB00"/>
					</linearGradient>
					<path style="fill:url(#SVGID_00000121247225317562603650000005682417977096094382_);" d="M76.726,485.319
						c0.658-0.75,1.984-1.418,4.271-1.781c6.678-1.061,22.314-2.681,26.534-7.701c3.185-3.789,2.719-10.385-9.637-13.501
						s-31.94-0.716-39.599-4.708c-5.72-2.981-20.055-12.511-32.838-19.022c-4.333-2.207-16.808-11.292-37.021-6.824
						c-26.526,3.471-34.608-5.213-34.776-18.783l-13.474,24.904l8.742,35.764c0,0,17.922,10.574,21.137,18.937
						c6.402-0.449,14.425,16.453,19.329,17.561c-8.047-21.563,5.081-36.72,33.616-29.485
						C68.086,492.109,76.722,485.323,76.726,485.319z"/>
				</g>
				<g>
					<g>
						
							<linearGradient id="SVGID_00000000914615745158640530000014666610105973949071_" gradientUnits="userSpaceOnUse" x1="432.8254" y1="67.4551" x2="421.1692" y2="118.0536" gradientTransform="matrix(-0.9995 0.0309 -0.0309 -0.9995 507.1764 444.9207)">
							<stop  offset="0" style="stop-color:#00F2FE"/>
							<stop  offset="1" style="stop-color:#534DDB"/>
						</linearGradient>
						<path style="fill:url(#SVGID_00000000914615745158640530000014666610105973949071_);" d="M76.094,329.643
							c0,0-19.111,0.291-35.978,38.948c-5.001,11.461-6.498,22.212,0.72,23.29c14.52,2.168,16.482-52.998,63.305-40.883
							c33.038-3.361,3.33-13.162,0.979-13.789c-2.351-0.627-17.964-12.791-17.964-12.791L76.094,329.643z"/>
						
							<linearGradient id="SVGID_00000074422832755596706000000016495182265257699254_" gradientUnits="userSpaceOnUse" x1="404.2861" y1="57.0332" x2="393.3641" y2="104.4444" gradientTransform="matrix(-0.9958 0.0911 -0.0911 -0.9958 520.6229 428.5946)">
							<stop  offset="0" style="stop-color:#00F2FE"/>
							<stop  offset="1" style="stop-color:#534DDB"/>
						</linearGradient>
						<path style="fill:url(#SVGID_00000074422832755596706000000016495182265257699254_);" d="M112.065,351.549
							c0,0-19.059,1.443-33.562,41.048c-4.3,11.742-3.718,17.972,3.552,18.613c14.625,1.288,11.825-49.304,59.294-40.037
							c32.775-5.348,2.529-13.339,0.145-13.823c-2.384-0.484-18.703-11.684-18.703-11.684L112.065,351.549z"/>
						
							<linearGradient id="SVGID_00000088855233827942847700000001507951389620852135_" gradientUnits="userSpaceOnUse" x1="425.9416" y1="61.5971" x2="415.6892" y2="106.1018" gradientTransform="matrix(-0.9922 -0.1243 0.1243 -0.9922 468.0052 482.9922)">
							<stop  offset="0" style="stop-color:#00F2FE"/>
							<stop  offset="1" style="stop-color:#534DDB"/>
						</linearGradient>
						<path style="fill:url(#SVGID_00000088855233827942847700000001507951389620852135_);" d="M55.116,328.099
							c0,0-12.732-4.313-27.477,14.035c-7.833,9.747-9.861,20.937-2.897,23.12c14.009,4.392,27.85-33.597,61.009-31.799
							c33.159,1.798,13.192-11.271,10.967-12.255s-27.542-3.216-27.542-3.216L55.116,328.099z"/>
						
							<linearGradient id="SVGID_00000053518512281602397400000004504911673541520570_" gradientUnits="userSpaceOnUse" x1="341.4485" y1="102.1995" x2="473.6862" y2="155.932" gradientTransform="matrix(-1 0 0 -1 500 452.8085)">
							<stop  offset="0" style="stop-color:#534DDB"/>
							<stop  offset="1" style="stop-color:#00F2FE"/>
						</linearGradient>
						<path style="fill:url(#SVGID_00000053518512281602397400000004504911673541520570_);" d="M103.136,350.749
							c0,0-4.203-13.422-27.146-20.345s-41.118,13.174-54.4,9.155s1.049-26.447,31.34-34.136s70.136,4.194,94.835,23.534
							c21.574,16.893,47.414,19.598,42.703-3.053c-4.711-22.651,18.811,18.897,18.811,19.946c0,1.049,0,15.379,0,15.379
							l-20.272,10.835l-29.01-4.544l-36.699-12.131L103.136,350.749z"/>
					</g>
					
						<linearGradient id="SVGID_00000022543690691573286480000000962897858310839695_" gradientUnits="userSpaceOnUse" x1="260.3251" y1="76.4883" x2="429.3354" y2="76.4883" gradientTransform="matrix(-1 0 0 -1 500 452.8085)">
						<stop  offset="0" style="stop-color:#534DDB"/>
						<stop  offset="1" style="stop-color:#00F2FE"/>
					</linearGradient>
					<path style="fill:url(#SVGID_00000022543690691573286480000000962897858310839695_);" d="M103.136,350.749
						c-0.658,0.75-1.984,1.418-4.271,1.781c-6.678,1.061-22.314,2.681-26.534,7.701c-3.185,3.789-2.719,10.385,9.637,13.501
						s31.94,0.716,39.599,4.708c5.72,2.981,20.055,12.511,32.838,19.022c4.333,2.207,16.808,11.292,37.021,6.824
						c26.526-3.471,36.431,5.544,34.776,18.783c2.757,15.87,13.474-24.904,13.474-24.904l-8.742-35.764
						c0,0-17.922-10.574-21.137-18.937c-6.402,0.449-14.425-16.453-19.329-17.561c8.047,21.563-5.081,36.72-33.616,29.485
						C111.775,343.959,103.14,350.746,103.136,350.749z"/>
				</g>
				<g>
					
						<linearGradient id="SVGID_00000112615803753256126700000011125971574783758748_" gradientUnits="userSpaceOnUse" x1="-22.1597" y1="266.6182" x2="68.0284" y2="588.0577">
						<stop  offset="0" style="stop-color:#F5CB00"/>
						<stop  offset="1" style="stop-color:#DA344B"/>
					</linearGradient>
					<path style="fill:url(#SVGID_00000112615803753256126700000011125971574783758748_);" d="M77.762,584.907
						c0-16.648-10.847-31.442-26.804-36.191c-56.321-16.764-97.394-68.915-97.394-130.682c0-61.767,41.073-113.918,97.394-130.682
						c15.956-4.749,26.803-19.543,26.803-36.191v0C-8.981,257.402-77.43,329.7-77.43,418.034
						C-77.43,506.368-8.981,578.667,77.762,584.907L77.762,584.907z"/>
					
						<linearGradient id="SVGID_00000063634289629688538460000005598619337077940154_" gradientUnits="userSpaceOnUse" x1="109.5883" y1="240.0094" x2="199.7763" y2="561.4489">
						<stop  offset="0" style="stop-color:#00F2FE"/>
						<stop  offset="1" style="stop-color:#534DDB"/>
					</linearGradient>
					<path style="fill:url(#SVGID_00000063634289629688538460000005598619337077940154_);" d="M102.099,251.161L102.099,251.161
						c0,16.648,10.847,31.442,26.803,36.191c56.321,16.764,97.394,68.915,97.394,130.682s-41.073,113.918-97.394,130.682
						c-15.956,4.749-26.803,19.543-26.803,36.191v0c86.743-6.241,155.192-78.539,155.192-166.873
						C257.292,329.7,188.843,257.402,102.099,251.161z"/>
				</g>
			</g>
		</g>
	</g>
</g>
<g id="OBJECTS">
	<g>
		<g>
			<g>
				<g>
					
						<linearGradient id="SVGID_00000011003646882167691020000003471311905123619729_" gradientUnits="userSpaceOnUse" x1="259.1429" y1="219.3174" x2="253.3896" y2="244.2921" gradientTransform="matrix(0.9995 -0.0309 0.0309 0.9995 -7.1764 7.8878)">
						<stop  offset="0" style="stop-color:#F5CB00"/>
						<stop  offset="1" style="stop-color:#DA344B"/>
					</linearGradient>
					<path style="fill:url(#SVGID_00000011003646882167691020000003471311905123619729_);" d="M256.829,249.315
						c0,0,9.433-0.144,17.758-19.224c2.468-5.657,3.208-10.963-0.355-11.495c-7.167-1.07-8.135,26.159-31.246,20.179
						c-16.307,1.659-1.643,6.497-0.483,6.806c1.16,0.309,8.867,6.313,8.867,6.313L256.829,249.315z"/>
					
						<linearGradient id="SVGID_00000148643711392135262800000012024995212279644091_" gradientUnits="userSpaceOnUse" x1="241.2839" y1="208.9674" x2="235.8929" y2="232.3689" gradientTransform="matrix(0.9958 -0.0911 0.0911 0.9958 -20.6229 24.214)">
						<stop  offset="0" style="stop-color:#F5CB00"/>
						<stop  offset="1" style="stop-color:#DA344B"/>
					</linearGradient>
					<path style="fill:url(#SVGID_00000148643711392135262800000012024995212279644091_);" d="M239.075,238.503
						c0,0,9.407-0.712,16.566-20.261c2.122-5.796,1.835-8.871-1.753-9.187c-7.219-0.636-5.837,24.336-29.267,19.761
						c-16.177,2.64-1.248,6.584-0.072,6.823c1.177,0.239,9.231,5.767,9.231,5.767L239.075,238.503z"/>
					
						<linearGradient id="SVGID_00000174575093489899408050000009752073515365557911_" gradientUnits="userSpaceOnUse" x1="266.7249" y1="228.7281" x2="261.6645" y2="250.695" gradientTransform="matrix(0.9922 0.1243 -0.1243 0.9922 31.9948 -30.1837)">
						<stop  offset="0" style="stop-color:#F5CB00"/>
						<stop  offset="1" style="stop-color:#DA344B"/>
					</linearGradient>
					<path style="fill:url(#SVGID_00000174575093489899408050000009752073515365557911_);" d="M267.184,250.078
						c0,0,6.284,2.129,13.562-6.928c3.866-4.811,4.867-10.334,1.43-11.412c-6.915-2.168-13.746,16.583-30.113,15.696
						c-16.367-0.887-6.512,5.563-5.413,6.049s13.594,1.587,13.594,1.587L267.184,250.078z"/>
					
						<linearGradient id="SVGID_00000132798260274423802180000008110449421106541461_" gradientUnits="userSpaceOnUse" x1="216.5079" y1="238.036" x2="281.7785" y2="264.5575">
						<stop  offset="0" style="stop-color:#DA344B"/>
						<stop  offset="1" style="stop-color:#F5CB00"/>
					</linearGradient>
					<path style="fill:url(#SVGID_00000132798260274423802180000008110449421106541461_);" d="M243.482,238.898
						c0,0,2.074,6.625,13.399,10.042c11.325,3.417,20.295-6.503,26.851-4.519c6.556,1.984-0.518,13.054-15.469,16.849
						c-14.951,3.795-34.618-2.07-46.809-11.616c-10.649-8.338-23.403-9.673-21.078,1.507c-6.963,1.991-9.285-9.328-9.285-9.845
						s0-7.591,0-7.591l10.006-5.348l14.319,2.243l18.114,5.988L243.482,238.898z"/>
				</g>
				
					<linearGradient id="SVGID_00000083067764879366343400000006421884340191585443_" gradientUnits="userSpaceOnUse" x1="176.0883" y1="227.1816" x2="259.5093" y2="227.1816">
					<stop  offset="0" style="stop-color:#DA344B"/>
					<stop  offset="1" style="stop-color:#F5CB00"/>
				</linearGradient>
				<path style="fill:url(#SVGID_00000083067764879366343400000006421884340191585443_);" d="M243.482,238.898
					c0.325-0.37,0.979-0.7,2.108-0.879c3.296-0.524,11.014-1.323,13.097-3.801c1.572-1.87,1.342-5.126-4.757-6.664
					c-6.099-1.538-15.765-0.353-19.546-2.324c-2.824-1.471-9.899-6.175-16.208-9.389c-2.139-1.09-8.296-5.574-18.273-3.368
					c-13.093,1.713-17.082-2.573-17.165-9.271l-6.65,12.292l4.315,17.652c0,0,8.846,5.219,10.433,9.347
					c3.16-0.222,7.12,8.121,9.54,8.668c-3.972-10.643,2.508-18.124,16.592-14.553C239.218,242.249,243.48,238.9,243.482,238.898z"/>
			</g>
			<g>
				<g>
					
						<linearGradient id="SVGID_00000047020331611950491010000016527337369761809819_" gradientUnits="userSpaceOnUse" x1="257.8638" y1="260.7321" x2="252.1105" y2="285.7067" gradientTransform="matrix(-0.9995 0.0309 -0.0309 -0.9995 507.1764 444.9207)">
						<stop  offset="0" style="stop-color:#00F2FE"/>
						<stop  offset="1" style="stop-color:#534DDB"/>
					</linearGradient>
					<path style="fill:url(#SVGID_00000047020331611950491010000016527337369761809819_);" d="M243.17,162.059
						c0,0-9.433,0.144-17.758,19.224c-2.468,5.657-3.208,10.963,0.355,11.495c7.167,1.07,8.135-26.159,31.246-20.179
						c16.307-1.659,1.643-6.497,0.483-6.806c-1.16-0.309-8.867-6.313-8.867-6.313L243.17,162.059z"/>
					
						<linearGradient id="SVGID_00000008844684287448899150000001863902080350159787_" gradientUnits="userSpaceOnUse" x1="237.5082" y1="250.2294" x2="232.1173" y2="273.6309" gradientTransform="matrix(-0.9958 0.0911 -0.0911 -0.9958 520.6229 428.5946)">
						<stop  offset="0" style="stop-color:#00F2FE"/>
						<stop  offset="1" style="stop-color:#534DDB"/>
					</linearGradient>
					<path style="fill:url(#SVGID_00000008844684287448899150000001863902080350159787_);" d="M260.925,172.871
						c0,0-9.407,0.712-16.566,20.261c-2.122,5.796-1.835,8.871,1.753,9.187c7.219,0.636,5.837-24.336,29.267-19.761
						c16.177-2.64,1.248-6.584,0.072-6.823s-9.231-5.767-9.231-5.767L260.925,172.871z"/>
					
						<linearGradient id="SVGID_00000063609239699158642520000016694575888087435186_" gradientUnits="userSpaceOnUse" x1="271.8765" y1="269.841" x2="266.816" y2="291.8079" gradientTransform="matrix(-0.9922 -0.1243 0.1243 -0.9922 468.0052 482.9922)">
						<stop  offset="0" style="stop-color:#00F2FE"/>
						<stop  offset="1" style="stop-color:#534DDB"/>
					</linearGradient>
					<path style="fill:url(#SVGID_00000063609239699158642520000016694575888087435186_);" d="M232.816,161.296
						c0,0-6.284-2.129-13.562,6.928c-3.866,4.811-4.867,10.334-1.43,11.412c6.915,2.168,13.746-16.583,30.113-15.696
						c16.367,0.887,6.512-5.563,5.413-6.049c-1.098-0.485-13.594-1.587-13.594-1.587L232.816,161.296z"/>
					
						<linearGradient id="SVGID_00000183945793411483086390000002961011248210827700_" gradientUnits="userSpaceOnUse" x1="216.1301" y1="280.4015" x2="281.4006" y2="306.9231" gradientTransform="matrix(-1 0 0 -1 500 452.8085)">
						<stop  offset="0" style="stop-color:#534DDB"/>
						<stop  offset="1" style="stop-color:#00F2FE"/>
					</linearGradient>
					<path style="fill:url(#SVGID_00000183945793411483086390000002961011248210827700_);" d="M256.517,172.476
						c0,0-2.074-6.625-13.399-10.042c-11.325-3.417-20.295,6.503-26.851,4.519c-6.556-1.984,0.518-13.054,15.469-16.849
						c14.951-3.795,34.618,2.07,46.809,11.616c10.649,8.338,23.403,9.673,21.078-1.507c-2.325-11.18,9.285,9.328,9.285,9.845
						s0,7.591,0,7.591l-10.006,5.348l-14.319-2.243l-18.114-5.988L256.517,172.476z"/>
				</g>
				
					<linearGradient id="SVGID_00000165194213034701327830000017049688472591824798_" gradientUnits="userSpaceOnUse" x1="176.0888" y1="267.7108" x2="259.5098" y2="267.7108" gradientTransform="matrix(-1 0 0 -1 500 452.8085)">
					<stop  offset="0" style="stop-color:#534DDB"/>
					<stop  offset="1" style="stop-color:#00F2FE"/>
				</linearGradient>
				<path style="fill:url(#SVGID_00000165194213034701327830000017049688472591824798_);" d="M256.517,172.476
					c-0.325,0.37-0.979,0.7-2.108,0.879c-3.296,0.524-11.014,1.323-13.097,3.801c-1.572,1.87-1.342,5.126,4.757,6.664
					c6.099,1.538,15.765,0.353,19.546,2.324c2.824,1.471,9.899,6.175,16.208,9.389c2.139,1.09,8.296,5.574,18.273,3.368
					c13.093-1.713,17.982,2.736,17.165,9.271c1.361,7.833,6.65-12.292,6.65-12.292l-4.315-17.652c0,0-8.846-5.219-10.433-9.347
					c-3.16,0.222-7.12-8.121-9.54-8.668c3.972,10.643-2.508,18.124-16.592,14.553C260.782,169.125,256.52,172.474,256.517,172.476z"
					/>
			</g>
			<g>
				
					<linearGradient id="SVGID_00000047769935298647570260000001842908811681282478_" gradientUnits="userSpaceOnUse" x1="194.6736" y1="130.9504" x2="239.1891" y2="289.6082">
					<stop  offset="0" style="stop-color:#F5CB00"/>
					<stop  offset="1" style="stop-color:#DA344B"/>
				</linearGradient>
				<path style="fill:url(#SVGID_00000047769935298647570260000001842908811681282478_);" d="M243.994,288.053
					c0-8.217-5.354-15.519-13.23-17.863c-27.799-8.274-48.072-34.015-48.072-64.503c0-30.487,20.273-56.228,48.072-64.503
					c7.876-2.344,13.23-9.646,13.23-17.863v0c-42.815,3.08-76.601,38.766-76.601,82.366
					C167.393,249.287,201.178,284.973,243.994,288.053L243.994,288.053z"/>
				
					<linearGradient id="SVGID_00000169553820636912003480000006104538555077397947_" gradientUnits="userSpaceOnUse" x1="259.7024" y1="117.8167" x2="304.2179" y2="276.4745">
					<stop  offset="0" style="stop-color:#00F2FE"/>
					<stop  offset="1" style="stop-color:#534DDB"/>
				</linearGradient>
				<path style="fill:url(#SVGID_00000169553820636912003480000006104538555077397947_);" d="M256.006,123.321L256.006,123.321
					c0,8.217,5.354,15.519,13.23,17.863c27.799,8.274,48.072,34.015,48.072,64.503s-20.273,56.228-48.072,64.503
					c-7.876,2.344-13.23,9.646-13.23,17.863v0c42.815-3.08,76.601-38.766,76.601-82.366
					C332.607,162.087,298.821,126.401,256.006,123.321z"/>
			</g>
		</g>
	</g>
</g>
<g id="TEXTS">
	<g>
		<g>
			<g>
				<text transform="matrix(1 0 0 1 124.0276 341.1589)"><tspan x="0" y="0" style="font-family:'Barlow-Bold'; font-size:43.327px;">BRAND</tspan><tspan x="138.125" y="0" style="font-family:'Barlow-ExtraBold'; font-size:43.327px;"> </tspan><tspan x="146.79" y="0" style="font-family:'Barlow-Medium'; font-size:43.327px;">LOGO</tspan></text>
			</g>
			<g>
				<text transform="matrix(1 0 0 1 181.2874 372.2575)" style="font-family:'Barlow-Medium'; font-size:21.1562px;">YOUR TAGLINE</text>
			</g>
		</g>
	</g>
</g>
</svg>
